<?xml version="1.0" encoding="utf-8"?>
<!-- Generator: Adobe Illustrator 17.1.0, SVG Export Plug-In . SVG Version: 6.00 Build 0)  -->
<!DOCTYPE svg PUBLIC "-//W3C//DTD SVG 1.1//EN" "http://www.w3.org/Graphics/SVG/1.1/DTD/svg11.dtd">
<svg version="1.1" xmlns="http://www.w3.org/2000/svg" xmlns:xlink="http://www.w3.org/1999/xlink" x="0px" y="0px" width="98" height="101"
	 viewBox="0 0 305 315" enable-background="new 0 0 305 315" xml:space="preserve">
<g id="People" display="none">
	<path display="inline" opacity="0.5" fill-rule="evenodd" clip-rule="evenodd" fill="#0B55A8" d="M122.663,215.1l-59.716-26.321
		c-9.222-4.063-9.297-15.639-9.324-20.149c0-0.054,0-0.802-0.013-0.802c6.788-8.142,12.161-18.427,15.551-30.071
		c0.144,0.028,0.291,0.053,0.44,0.067c6.103,0.636,12.258-10.416,13.744-24.676c1.349-12.927-1.601-24.062-6.709-26.512
		c-0.519-0.245-1.073-0.474-1.658-0.474c-0.995-31.974-27.241-57.6-59.454-57.6c-31.459,0-57.22,24.438-59.337,55.365
		c-0.013,0.171-0.113,2.235-0.115,2.235c-6.105,0.641-9.852,12.72-8.366,26.987c1.488,14.26,7.642,25.312,13.748,24.676
		c0.149-0.015,0.296-0.039,0.442-0.067c3.337,11.462,8.596,21.606,15.233,29.69c0.029,0.034,0.317,0.381,0.31,0.381
		c-0.065,3.737,0.507,16.618-9.331,20.951L-91.608,215.1c-6.716,2.959-25.653,11.537-25.653,29.857v15.038
		c0,6.544,5.353,11.899,11.896,11.899c80.596,0,161.191,0,241.784,0c6.544,0,11.9-5.35,11.9-11.899v-6.279v-8.759
		C148.319,226.637,129.381,218.059,122.663,215.1L122.663,215.1z"/>
	<path display="inline" fill-rule="evenodd" clip-rule="evenodd" fill="#0B55A8" d="M279.285,230.565l-73.952-32.595
		c-11.421-5.032-11.513-19.368-11.546-24.952c0-0.067,0-0.994-0.016-0.994c8.407-10.083,15.06-22.82,19.258-37.239
		c0.179,0.035,0.36,0.065,0.544,0.083c7.558,0.788,15.181-12.899,17.02-30.559c1.67-16.008-1.983-29.798-8.308-32.832
		c-0.643-0.303-1.329-0.587-2.053-0.587c-1.232-39.596-33.734-71.332-73.627-71.332c-38.959,0-70.86,30.264-73.482,68.564
		c-0.016,0.211-0.14,2.768-0.143,2.768c-7.56,0.793-12.2,15.753-10.36,33.42c1.842,17.66,9.464,31.347,17.025,30.559
		c0.185-0.018,0.367-0.048,0.547-0.083c4.132,14.195,10.645,26.756,18.864,36.768c0.036,0.042,0.393,0.472,0.384,0.472
		c-0.081,4.628,0.627,20.58-11.556,25.946l-73.952,32.595c-8.317,3.664-31.768,14.287-31.768,36.974v18.624
		c0,8.104,6.629,14.736,14.732,14.736c99.81,0,199.617,0,299.423,0c8.104,0,14.736-6.626,14.736-14.736v-7.776v-10.848
		C311.058,244.852,287.604,234.229,279.285,230.565L279.285,230.565z"/>
	<path display="inline" opacity="0.5" fill-rule="evenodd" clip-rule="evenodd" fill="#0B55A8" d="M388.096,222.458l-59.716-26.321
		c-9.222-4.063-9.296-15.639-9.324-20.149c0-0.054,0-0.802-0.013-0.802c6.788-8.142,12.161-18.427,15.551-30.071
		c0.144,0.028,0.291,0.053,0.44,0.067c6.103,0.636,12.258-10.416,13.744-24.676c1.349-12.927-1.601-24.062-6.709-26.512
		c-0.519-0.245-1.073-0.474-1.658-0.474c-0.995-31.974-27.241-57.6-59.454-57.6c-31.459,0-57.22,24.438-59.337,55.365
		c-0.013,0.171-0.113,2.235-0.115,2.235c-6.105,0.641-9.852,12.72-8.366,26.987c1.488,14.26,7.642,25.312,13.748,24.676
		c0.149-0.015,0.296-0.039,0.442-0.067c3.337,11.462,8.596,21.606,15.233,29.69c0.029,0.034,0.317,0.381,0.31,0.381
		c-0.065,3.737,0.507,16.618-9.331,20.951l-59.716,26.321c-6.716,2.959-25.653,11.537-25.653,29.857v15.038
		c0,6.544,5.353,11.899,11.896,11.899c80.596,0,161.191,0,241.784,0c6.544,0,11.9-5.35,11.9-11.899v-6.279v-8.759
		C413.752,233.994,394.813,225.416,388.096,222.458L388.096,222.458z"/>
</g>
<g id="Mortar_board" display="none">
	<path display="inline" fill="#0B55A8" d="M300.614,89.793v54.111l5.566,7.304v33.912c-3.746,10.363-24.52,10.64-29.923,2.771
		v-33.922l6.054-8.558V94.553L300.614,89.793L300.614,89.793z M248.183,103.737v50.012c0,42.444-203.979,42.444-203.984-0.006
		v-52.678l108.385,28.426L248.183,103.737L248.183,103.737z M152.538,117.475l185.186-49.882V55.661L152.532,7.094L-32.649,56.871
		v12.037C-32.649,68.913,137.098,113.427,152.538,117.475L152.538,117.475z"/>
	<path display="inline" fill-rule="evenodd" clip-rule="evenodd" fill="#0B55A8" d="M198.292,280.13
		c6.973,7.067,11.329,15.857,12.473,26.762c-9.971-6.203-20.528-11.879-33.962-14.963c-5.074,6.935-11.866,12.324-20.398,16.147
		c-2.283-10.549-6.264-19.816-12.98-27.016C158.442,280.596,182.023,279.613,198.292,280.13L198.292,280.13z M27.955,270.207
		c40.832-3.553,79.87-5.639,116.899-6.081c-1.436,4.136-3.566,9.025-6.965,11.921c-34.895,1.269-79.429,4.699-104.921,7.518
		c-4.077,0.452-10.709,0.919-14.505-0.382c-5.154-1.775-9.587-6.385-12.84-12.923c-7.802-15.688-8.074-40.396-0.618-56.249
		c3.878-8.244,10.62-15.178,21.108-13.71c12.76,1.554,66.206,7.841,105.589,9.193c16.006,9.654,19.435,32.095,14.637,48.912
		c-46.736-0.621-76.972-0.632-113.862,1.123c-2.01,0.154-4.058-0.116-6.019-0.773c-12.464-4.756-13.486-19.451-7.612-30.671
		c2.247-3.661,5.543-3.559,7.207-1.522c1.902,2.325-0.624,7.051-1.375,10.535c-2.422,10.327,8.284,16.263,9.85,7.501
		c0.419-3.911-0.009-8.927-0.961-13.753c-1.935-9.811-11.46-26.888-20.381-13.787C-0.847,237.665,12.664,286.25,27.955,270.207
		L27.955,270.207z M203.854,263.265c29.36,0.818,62.445,4.578,91.653,9.271c2.377,0.276,3.075,1.388,1.736,3.52
		c-0.997,1.406-2.476,4.578-3.647,5.593c-4.02,3.478-15.719,0.124-33.241-1.919c-16.592-1.936-38.572-4.499-61.309-4.853
		C200.909,271.638,202.566,267.673,203.854,263.265L203.854,263.265z M188.149,274.886l-38.864,0.845
		c10.701-18.918,11.133-49.264-3.679-65.98l35.889-0.011c19.347,12.025,20.434,43.063,9.707,61.107
		C190.203,272.532,189.17,273.904,188.149,274.886L188.149,274.886z M194.944,209.627c11.029-0.262,23.037-0.952,34.514-1.81
		c24.737-1.845,46.729-4.453,51.285-5.154c4.624-0.712,8.665,0.392,12.133,2.872c14.108,10.081,14.256,40.113,10.596,55.536
		c-0.961,3.727-3.28,5.434-7.611,4.15c-32.965-5.137-60.295-5.974-90.75-7.329C208.043,241.408,207.303,223.379,194.944,209.627
		L194.944,209.627z"/>
</g>
<g id="Ribbon">
	<path fill-rule="evenodd" clip-rule="evenodd" fill="#0B55A8" d="M152.54,4.173c11.803-0.003,11.516,9.164,23.746,12.444
		c12.247,3.289,16.594-4.797,26.814,1.098c10.561,6.101,5.283,14.035,14.131,22.856c8.859,8.83,16.814,3.654,22.877,14.158
		c6.111,10.582-2.457,14.797,0.815,26.868c3.263,12.047,12.734,11.582,12.734,23.689c0,12.164-9.487,11.617-12.749,23.68
		c-3.263,12.077,5.316,16.292-0.797,26.883c-6.098,10.573-14.035,5.266-22.865,14.152c-8.809,8.854-3.656,16.803-14.146,22.859
		c-10.212,5.898-14.555-2.179-26.808,1.122c-12.212,3.281-12,12.424-23.755,12.427c-12.235-0.003-11.579-9.546-23.686-12.746
		c-12.056-3.194-16.361,5.269-26.874-0.803c-10.161-5.866-5.436-13.689-14.373-22.644c-8.955-8.976-16.749-4.164-22.638-14.367
		c-5.892-10.206,2.176-14.567-1.119-26.805c-3.278-12.203-12.426-11.997-12.426-23.755c-0.003-11.788,9.164-11.528,12.444-23.752
		c3.292-12.25-4.809-16.579,1.101-26.805c5.88-10.185,13.695-5.424,22.644-14.364c8.967-8.949,4.161-16.761,14.367-22.653
		c10.206-5.892,14.564,2.173,26.799-1.11C140.997,13.328,140.77,4.173,152.54,4.173L152.54,4.173z M152.537,45.226
		c-33.166,0-60.061,26.895-60.061,60.061c0,33.166,26.895,60.061,60.061,60.061s60.061-26.895,60.061-60.061
		C212.598,72.121,185.704,45.226,152.537,45.226L152.537,45.226z M152.537,36.026c38.253,0,69.261,31.008,69.261,69.261
		c0,38.253-31.008,69.261-69.261,69.261c-38.253,0-69.261-31.008-69.261-69.261C83.276,67.034,114.285,36.026,152.537,36.026
		L152.537,36.026z M248.427,168.682l51.661,89.481c0.678,1.173,0.436,3.567-0.904,3.367l-61.527-9.098l-23.134,57.978
		c-0.504,1.26-2.69,0.274-3.37-0.901l-51.665-89.487c3.985-0.448,7.489-1.851,10.842-4.454c4.275-3.328,6.119-6.543,11.722-8.048
		c5.609-1.513,8.773,0.349,14.146,1.104c5.236,0.731,9.74-0.272,14.319-2.913c4.788-2.764,7.985-6.328,9.928-11.507
		c1.812-4.842,1.776-8.558,5.663-12.468c3.85-3.875,7.498-3.818,12.307-5.582C242.702,174.584,245.881,172.151,248.427,168.682
		L248.427,168.682z M145.582,220.027l-51.661,89.478c-0.678,1.176-2.872,2.161-3.367,0.904l-22.883-57.834l-61.778,8.955
		c-1.343,0.194-1.585-2.194-0.907-3.37l51.667-89.487c2.379,3.23,5.346,5.561,9.277,7.164c5.018,2.039,8.725,2.027,12.833,6.128
		c4.113,4.098,4.08,7.77,6.113,12.8c1.988,4.901,5.107,8.301,9.683,10.946c4.788,2.764,9.474,3.752,14.931,2.845
		c5.095-0.854,8.298-2.743,13.626-1.331c5.283,1.4,7.057,4.585,10.988,7.868C137.609,218.018,141.305,219.559,145.582,220.027
		L145.582,220.027z"/>
</g>
</svg>
