<?xml version="1.0" encoding="utf-8"?>
<!-- Generator: Adobe Illustrator 17.1.0, SVG Export Plug-In . SVG Version: 6.00 Build 0)  -->
<!DOCTYPE svg PUBLIC "-//W3C//DTD SVG 1.1//EN" "http://www.w3.org/Graphics/SVG/1.1/DTD/svg11.dtd">
<svg version="1.1" xmlns="http://www.w3.org/2000/svg" xmlns:xlink="http://www.w3.org/1999/xlink" x="0px" y="0px"
	 viewBox="0 0 305 315" style="enable-background:new 0 0 305 315;" xml:space="preserve">
<style type="text/css">
	.st0{display:none;}
	.st1{display:inline;opacity:0.5;fill-rule:evenodd;clip-rule:evenodd;fill:#0B55A8;}
	.st2{display:inline;fill-rule:evenodd;clip-rule:evenodd;fill:#0B55A8;}
	.st3{display:inline;fill:#0B55A8;}
	.st4{fill-rule:evenodd;clip-rule:evenodd;fill:#0B55A8;}
</style>
<g id="People" class="st0">
	<path class="st1" d="M122.7,215.1l-59.7-26.3c-9.2-4.1-9.3-15.6-9.3-20.1c0-0.1,0-0.8,0-0.8c6.8-8.1,12.2-18.4,15.6-30.1
		c0.1,0,0.3,0.1,0.4,0.1c6.1,0.6,12.3-10.4,13.7-24.7c1.3-12.9-1.6-24.1-6.7-26.5c-0.5-0.2-1.1-0.5-1.7-0.5
		c-1-32-27.2-57.6-59.5-57.6c-31.5,0-57.2,24.4-59.3,55.4c0,0.2-0.1,2.2-0.1,2.2c-6.1,0.6-9.9,12.7-8.4,27
		c1.5,14.3,7.6,25.3,13.7,24.7c0.1,0,0.3,0,0.4-0.1c3.3,11.5,8.6,21.6,15.2,29.7c0,0,0.3,0.4,0.3,0.4c-0.1,3.7,0.5,16.6-9.3,21
		l-59.7,26.3c-6.7,3-25.7,11.5-25.7,29.9v15c0,6.5,5.4,11.9,11.9,11.9c80.6,0,161.2,0,241.8,0c6.5,0,11.9-5.4,11.9-11.9v-6.3V245
		C148.3,226.6,129.4,218.1,122.7,215.1L122.7,215.1z"/>
	<path class="st2" d="M279.3,230.6l-74-32.6c-11.4-5-11.5-19.4-11.5-25c0-0.1,0-1,0-1c8.4-10.1,15.1-22.8,19.3-37.2
		c0.2,0,0.4,0.1,0.5,0.1c7.6,0.8,15.2-12.9,17-30.6c1.7-16-2-29.8-8.3-32.8c-0.6-0.3-1.3-0.6-2.1-0.6C219,31.3,186.5-0.4,146.6-0.4
		c-39,0-70.9,30.3-73.5,68.6c0,0.2-0.1,2.8-0.1,2.8c-7.6,0.8-12.2,15.8-10.4,33.4c1.8,17.7,9.5,31.3,17,30.6c0.2,0,0.4,0,0.5-0.1
		c4.1,14.2,10.6,26.8,18.9,36.8c0,0,0.4,0.5,0.4,0.5c-0.1,4.6,0.6,20.6-11.6,25.9l-74,32.6c-8.3,3.7-31.8,14.3-31.8,37v18.6
		c0,8.1,6.6,14.7,14.7,14.7c99.8,0,199.6,0,299.4,0c8.1,0,14.7-6.6,14.7-14.7v-7.8v-10.8C311.1,244.9,287.6,234.2,279.3,230.6
		L279.3,230.6z"/>
	<path class="st1" d="M388.1,222.5l-59.7-26.3c-9.2-4.1-9.3-15.6-9.3-20.1c0-0.1,0-0.8,0-0.8c6.8-8.1,12.2-18.4,15.6-30.1
		c0.1,0,0.3,0.1,0.4,0.1c6.1,0.6,12.3-10.4,13.7-24.7c1.3-12.9-1.6-24.1-6.7-26.5c-0.5-0.2-1.1-0.5-1.7-0.5
		c-1-32-27.2-57.6-59.5-57.6c-31.5,0-57.2,24.4-59.3,55.4c0,0.2-0.1,2.2-0.1,2.2c-6.1,0.6-9.9,12.7-8.4,27
		c1.5,14.3,7.6,25.3,13.7,24.7c0.1,0,0.3,0,0.4-0.1c3.3,11.5,8.6,21.6,15.2,29.7c0,0,0.3,0.4,0.3,0.4c-0.1,3.7,0.5,16.6-9.3,21
		l-59.7,26.3c-6.7,3-25.7,11.5-25.7,29.9v15c0,6.5,5.4,11.9,11.9,11.9c80.6,0,161.2,0,241.8,0c6.5,0,11.9-5.4,11.9-11.9v-6.3v-8.8
		C413.8,234,394.8,225.4,388.1,222.5L388.1,222.5z"/>
</g>
<g id="Mortar_board" class="st0">
	<path class="st3" d="M300.6,89.8v54.1l5.6,7.3v33.9c-3.7,10.4-24.5,10.6-29.9,2.8V154l6.1-8.6V94.6L300.6,89.8L300.6,89.8z
		 M248.2,103.7v50c0,42.4-204,42.4-204,0v-52.7l108.4,28.4L248.2,103.7L248.2,103.7z M152.5,117.5l185.2-49.9V55.7L152.5,7.1
		L-32.6,56.9v12C-32.6,68.9,137.1,113.4,152.5,117.5L152.5,117.5z"/>
	<path class="st2" d="M198.3,280.1c7,7.1,11.3,15.9,12.5,26.8c-10-6.2-20.5-11.9-34-15c-5.1,6.9-11.9,12.3-20.4,16.1
		c-2.3-10.5-6.3-19.8-13-27C158.4,280.6,182,279.6,198.3,280.1L198.3,280.1z M28,270.2c40.8-3.6,79.9-5.6,116.9-6.1
		c-1.4,4.1-3.6,9-7,11.9c-34.9,1.3-79.4,4.7-104.9,7.5c-4.1,0.5-10.7,0.9-14.5-0.4c-5.2-1.8-9.6-6.4-12.8-12.9
		C-2.2,254.6-2.5,229.9,5,214c3.9-8.2,10.6-15.2,21.1-13.7c12.8,1.6,66.2,7.8,105.6,9.2c16,9.7,19.4,32.1,14.6,48.9
		c-46.7-0.6-77-0.6-113.9,1.1c-2,0.2-4.1-0.1-6-0.8C14,254,13,239.3,18.8,228.1c2.2-3.7,5.5-3.6,7.2-1.5c1.9,2.3-0.6,7.1-1.4,10.5
		c-2.4,10.3,8.3,16.3,9.9,7.5c0.4-3.9,0-8.9-1-13.8c-1.9-9.8-11.5-26.9-20.4-13.8C-0.8,237.7,12.7,286.3,28,270.2L28,270.2z
		 M203.9,263.3c29.4,0.8,62.4,4.6,91.7,9.3c2.4,0.3,3.1,1.4,1.7,3.5c-1,1.4-2.5,4.6-3.6,5.6c-4,3.5-15.7,0.1-33.2-1.9
		c-16.6-1.9-38.6-4.5-61.3-4.9C200.9,271.6,202.6,267.7,203.9,263.3L203.9,263.3z M188.1,274.9l-38.9,0.8
		c10.7-18.9,11.1-49.3-3.7-66l35.9,0c19.3,12,20.4,43.1,9.7,61.1C190.2,272.5,189.2,273.9,188.1,274.9L188.1,274.9z M194.9,209.6
		c11-0.3,23-1,34.5-1.8c24.7-1.8,46.7-4.5,51.3-5.2c4.6-0.7,8.7,0.4,12.1,2.9c14.1,10.1,14.3,40.1,10.6,55.5c-1,3.7-3.3,5.4-7.6,4.2
		c-33-5.1-60.3-6-90.7-7.3C208,241.4,207.3,223.4,194.9,209.6L194.9,209.6z"/>
</g>
<g id="Ribbon" class="st0">
	<path class="st2" d="M152.5,4.2c11.8,0,11.5,9.2,23.7,12.4c12.2,3.3,16.6-4.8,26.8,1.1c10.6,6.1,5.3,14,14.1,22.9
		c8.9,8.8,16.8,3.7,22.9,14.2c6.1,10.6-2.5,14.8,0.8,26.9c3.3,12,12.7,11.6,12.7,23.7c0,12.2-9.5,11.6-12.7,23.7
		c-3.3,12.1,5.3,16.3-0.8,26.9c-6.1,10.6-14,5.3-22.9,14.2c-8.8,8.9-3.7,16.8-14.1,22.9c-10.2,5.9-14.6-2.2-26.8,1.1
		c-12.2,3.3-12,12.4-23.8,12.4c-12.2,0-11.6-9.5-23.7-12.7c-12.1-3.2-16.4,5.3-26.9-0.8c-10.2-5.9-5.4-13.7-14.4-22.6
		c-9-9-16.7-4.2-22.6-14.4c-5.9-10.2,2.2-14.6-1.1-26.8c-3.3-12.2-12.4-12-12.4-23.8c0-11.8,9.2-11.5,12.4-23.8
		C67.2,69.3,59.1,65,65,54.7c5.9-10.2,13.7-5.4,22.6-14.4c9-8.9,4.2-16.8,14.4-22.7c10.2-5.9,14.6,2.2,26.8-1.1
		C141,13.3,140.8,4.2,152.5,4.2L152.5,4.2z M152.5,45.2c-33.2,0-60.1,26.9-60.1,60.1c0,33.2,26.9,60.1,60.1,60.1
		s60.1-26.9,60.1-60.1C212.6,72.1,185.7,45.2,152.5,45.2L152.5,45.2z M152.5,36c38.3,0,69.3,31,69.3,69.3c0,38.3-31,69.3-69.3,69.3
		c-38.3,0-69.3-31-69.3-69.3C83.3,67,114.3,36,152.5,36L152.5,36z M248.4,168.7l51.7,89.5c0.7,1.2,0.4,3.6-0.9,3.4l-61.5-9.1
		l-23.1,58c-0.5,1.3-2.7,0.3-3.4-0.9L159.5,220c4-0.4,7.5-1.9,10.8-4.5c4.3-3.3,6.1-6.5,11.7-8c5.6-1.5,8.8,0.3,14.1,1.1
		c5.2,0.7,9.7-0.3,14.3-2.9c4.8-2.8,8-6.3,9.9-11.5c1.8-4.8,1.8-8.6,5.7-12.5c3.9-3.9,7.5-3.8,12.3-5.6
		C242.7,174.6,245.9,172.2,248.4,168.7L248.4,168.7z M145.6,220l-51.7,89.5c-0.7,1.2-2.9,2.2-3.4,0.9l-22.9-57.8l-61.8,9
		c-1.3,0.2-1.6-2.2-0.9-3.4l51.7-89.5c2.4,3.2,5.3,5.6,9.3,7.2c5,2,8.7,2,12.8,6.1c4.1,4.1,4.1,7.8,6.1,12.8c2,4.9,5.1,8.3,9.7,10.9
		c4.8,2.8,9.5,3.8,14.9,2.8c5.1-0.9,8.3-2.7,13.6-1.3c5.3,1.4,7.1,4.6,11,7.9C137.6,218,141.3,219.6,145.6,220L145.6,220z"/>
</g>
<g id="Book">
	<path class="st4" d="M57.8,256.9l65.2-9.4c-17.6-36.8-9-82.3,23.5-109.8c17.4-14.7,38.8-21.8,60-21.6V50.8l-8.6-10.4L54.7,59.9
		c-10.5-5.9-16.6-14-19.5-23.8l143.3-19.6l-10-12.2L19.8,25.8c-2.6,0.9-4.1,2.8-4.1,5.2v184.8C15.4,223.4,40.1,261.3,57.8,256.9
		L57.8,256.9z M81.2,84.4l95.1-13.2v36.4l-95.1,13.2V84.4L81.2,84.4z M176.4,172.9c19.1-16.1,47.7-13.8,63.8,5.3
		c16.2,19.1,13.8,47.7-5.3,63.8c-19.1,16.1-47.7,13.8-63.8-5.3C154.9,217.6,157.3,189,176.4,172.9L176.4,172.9z M271.1,247.1
		l23.5,27.8c6,7.1,5.1,17.8-2,23.8l-11.4,9.7c-7.1,6-17.8,5.1-23.8-2l-23.5-27.8c-30.3,12.1-65.4,3.5-86.7-21.7
		c-27.3-32.2-23.2-80.6,9-107.9s80.6-23.2,107.9,9C285.5,183.2,288.1,219.2,271.1,247.1L271.1,247.1z"/>
</g>
</svg>
