<?xml version="1.0" encoding="utf-8"?>
<!-- Generator: Adobe Illustrator 15.1.0, SVG Export Plug-In . SVG Version: 6.00 Build 0)  -->
<!DOCTYPE svg PUBLIC "-//W3C//DTD SVG 1.1//EN" "http://www.w3.org/Graphics/SVG/1.1/DTD/svg11.dtd">
<svg version="1.1" id="Layer_1" xmlns="http://www.w3.org/2000/svg" xmlns:xlink="http://www.w3.org/1999/xlink" x="0px" y="0px" 
	 width="67" height="95" viewBox="0 0 82 129" style="enable-background:new 0 0 82 129;" xml:space="preserve">
<style type="text/css">
<![CDATA[
	.st0{fill:#0B55A8;}
]]>
</style>
<path class="st0" d="M66.7,37.9c4.5-7.9,1.9-17.9-6-22.5l-1.3-0.7c-7.8-4.5-17.9-1.8-22.5,6l-4.4,7.6l0,0L5.9,74.4l0,34.5l29.7-17.3
	L66.7,37.9z M42.7,24c2.7-4.7,8.7-6.3,13.4-3.6l1.3,0.7c4.7,2.7,6.3,8.7,3.6,13.4l-3.7,6.3L39.1,30.3L42.7,24z M19.9,93l-7.3-4.2
	l0-12.4l18,10.4L19.9,93z M5.9,108.8L5.9,108.8l0,4.8h70.3v-4.8H5.9z"/>
</svg>