<?xml version="1.0" encoding="utf-8"?>
<!-- Generator: Adobe Illustrator 17.1.0, SVG Export Plug-In . SVG Version: 6.00 Build 0)  -->
<!DOCTYPE svg PUBLIC "-//W3C//DTD SVG 1.1//EN" "http://www.w3.org/Graphics/SVG/1.1/DTD/svg11.dtd">
<svg version="1.1" xmlns="http://www.w3.org/2000/svg" xmlns:xlink="http://www.w3.org/1999/xlink" x="0px" y="0px" width="84" height="50"
	 viewBox="0 0 538.667 309.333" enable-background="new 0 0 538.667 309.333" xml:space="preserve">
<g id="People">
	<path opacity="0.5" fill-rule="evenodd" clip-rule="evenodd" fill="#0B55A8" d="M243.996,218.767l-59.716-26.321
		c-9.222-4.064-9.297-15.639-9.324-20.149c0-0.054,0-0.802-0.013-0.802c6.788-8.142,12.161-18.427,15.551-30.071
		c0.144,0.028,0.291,0.053,0.44,0.067c6.103,0.636,12.258-10.416,13.744-24.676c1.349-12.927-1.601-24.062-6.709-26.512
		c-0.519-0.245-1.073-0.474-1.658-0.474c-0.995-31.974-27.241-57.6-59.454-57.6c-31.459,0-57.22,24.438-59.337,55.365
		c-0.013,0.171-0.113,2.235-0.115,2.235c-6.105,0.641-9.852,12.72-8.366,26.987c1.488,14.26,7.642,25.312,13.748,24.676
		c0.149-0.015,0.296-0.039,0.442-0.067c3.337,11.462,8.596,21.606,15.233,29.69c0.029,0.034,0.317,0.381,0.31,0.381
		c-0.065,3.737,0.507,16.618-9.331,20.951l-59.716,26.321c-6.716,2.959-25.653,11.537-25.653,29.857v15.038
		c0,6.544,5.353,11.899,11.896,11.899c80.596,0,161.191,0,241.784,0c6.544,0,11.9-5.35,11.9-11.899v-6.279v-8.759
		C269.653,230.304,250.714,221.725,243.996,218.767L243.996,218.767z"/>
	<path fill-rule="evenodd" clip-rule="evenodd" fill="#0B55A8" d="M400.619,234.232l-73.952-32.595
		c-11.421-5.032-11.513-19.368-11.546-24.952c0-0.067,0-0.994-0.016-0.994c8.407-10.083,15.06-22.82,19.258-37.239
		c0.179,0.035,0.36,0.065,0.544,0.083c7.558,0.788,15.181-12.899,17.021-30.559c1.67-16.008-1.983-29.798-8.308-32.833
		c-0.642-0.303-1.329-0.587-2.053-0.587c-1.232-39.596-33.734-71.332-73.627-71.332c-38.959,0-70.86,30.264-73.482,68.564
		c-0.016,0.211-0.14,2.768-0.143,2.768c-7.56,0.793-12.2,15.753-10.36,33.42c1.842,17.66,9.464,31.347,17.025,30.559
		c0.185-0.018,0.367-0.048,0.547-0.083c4.132,14.195,10.645,26.756,18.864,36.768c0.036,0.042,0.393,0.472,0.384,0.472
		c-0.081,4.628,0.627,20.58-11.556,25.946l-73.952,32.595c-8.317,3.664-31.768,14.287-31.768,36.974v18.623
		c0,8.104,6.629,14.736,14.732,14.736c99.81,0,199.617,0,299.423,0c8.104,0,14.736-6.626,14.736-14.736v-7.776v-10.848
		C432.391,248.519,408.938,237.896,400.619,234.232L400.619,234.232z"/>
	<path opacity="0.5" fill-rule="evenodd" clip-rule="evenodd" fill="#0B55A8" d="M509.429,226.124l-59.716-26.321
		c-9.222-4.064-9.297-15.639-9.324-20.149c0-0.054,0-0.802-0.013-0.802c6.788-8.142,12.161-18.427,15.551-30.071
		c0.144,0.028,0.291,0.053,0.44,0.067c6.103,0.636,12.258-10.416,13.744-24.676c1.349-12.927-1.601-24.062-6.709-26.512
		c-0.519-0.245-1.073-0.474-1.658-0.474c-0.995-31.974-27.241-57.6-59.454-57.6c-31.459,0-57.22,24.438-59.337,55.365
		c-0.013,0.171-0.113,2.235-0.115,2.235c-6.105,0.641-9.852,12.72-8.366,26.987c1.488,14.26,7.642,25.312,13.748,24.676
		c0.149-0.015,0.296-0.039,0.442-0.067c3.336,11.462,8.596,21.606,15.233,29.69c0.029,0.034,0.317,0.381,0.31,0.381
		c-0.065,3.737,0.507,16.618-9.331,20.951l-59.716,26.321c-6.716,2.959-25.653,11.537-25.653,29.857v15.038
		c0,6.544,5.353,11.899,11.896,11.899c80.596,0,161.191,0,241.784,0c6.544,0,11.9-5.35,11.9-11.899v-6.279v-8.759
		C535.085,237.661,516.147,229.083,509.429,226.124L509.429,226.124z"/>
</g>
<g id="Mortar_board" display="none">
	<path display="inline" fill="#0B55A8" d="M421.948,93.459v54.111l5.566,7.304v33.912c-3.746,10.363-24.52,10.64-29.923,2.771
		v-33.922l6.054-8.558V98.22L421.948,93.459L421.948,93.459z M369.516,107.403v50.012c0,42.444-203.979,42.444-203.984-0.006
		v-52.678l108.385,28.426L369.516,107.403L369.516,107.403z M273.872,121.142L459.057,71.26V59.328L273.865,10.761L88.685,60.538
		v12.037C88.685,72.58,258.432,117.093,273.872,121.142L273.872,121.142z"/>
	<path display="inline" fill-rule="evenodd" clip-rule="evenodd" fill="#0B55A8" d="M319.625,283.797
		c6.973,7.067,11.329,15.857,12.473,26.762c-9.971-6.203-20.528-11.879-33.962-14.963c-5.074,6.935-11.866,12.324-20.398,16.147
		c-2.283-10.549-6.264-19.816-12.98-27.016C279.775,284.263,303.356,283.28,319.625,283.797L319.625,283.797z M149.288,273.873
		c40.832-3.553,79.87-5.639,116.899-6.081c-1.436,4.136-3.566,9.025-6.965,11.921c-34.895,1.269-79.429,4.699-104.921,7.518
		c-4.077,0.452-10.709,0.919-14.505-0.382c-5.154-1.775-9.587-6.385-12.84-12.923c-7.802-15.688-8.074-40.396-0.618-56.249
		c3.878-8.244,10.62-15.178,21.108-13.71c12.76,1.554,66.206,7.841,105.589,9.193c16.006,9.654,19.435,32.095,14.637,48.912
		c-46.736-0.621-76.972-0.632-113.862,1.123c-2.01,0.154-4.058-0.116-6.019-0.773c-12.464-4.756-13.486-19.451-7.613-30.671
		c2.247-3.661,5.543-3.559,7.207-1.522c1.902,2.325-0.624,7.051-1.375,10.535c-2.422,10.327,8.284,16.263,9.85,7.501
		c0.419-3.911-0.009-8.927-0.961-13.753c-1.935-9.811-11.46-26.888-20.381-13.787C120.486,241.332,133.998,289.917,149.288,273.873
		L149.288,273.873z M325.187,266.932c29.36,0.818,62.445,4.578,91.653,9.271c2.377,0.276,3.075,1.388,1.736,3.52
		c-0.997,1.407-2.476,4.578-3.647,5.593c-4.02,3.478-15.719,0.124-33.241-1.919c-16.592-1.936-38.572-4.499-61.309-4.853
		C322.242,275.305,323.9,271.339,325.187,266.932L325.187,266.932z M309.482,278.552l-38.864,0.845
		c10.701-18.918,11.133-49.264-3.679-65.98l35.889-0.011c19.347,12.025,20.434,43.063,9.707,61.107
		C311.536,276.199,310.503,277.571,309.482,278.552L309.482,278.552z M316.278,213.293c11.029-0.262,23.037-0.952,34.514-1.81
		c24.737-1.845,46.729-4.453,51.285-5.154c4.624-0.712,8.665,0.392,12.133,2.872c14.108,10.081,14.256,40.113,10.596,55.536
		c-0.961,3.727-3.28,5.434-7.611,4.15c-32.965-5.137-60.295-5.974-90.75-7.329C329.377,245.074,328.637,227.046,316.278,213.293
		L316.278,213.293z"/>
</g>
<g id="Ribbon" display="none">
	<path display="inline" fill-rule="evenodd" clip-rule="evenodd" fill="#0B55A8" d="M273.874,7.84
		c11.803-0.003,11.516,9.164,23.746,12.444c12.247,3.289,16.594-4.797,26.814,1.098c10.561,6.101,5.283,14.035,14.131,22.856
		c8.859,8.83,16.814,3.654,22.877,14.158c6.111,10.582-2.457,14.797,0.815,26.868c3.263,12.047,12.734,11.582,12.734,23.689
		c0,12.164-9.487,11.617-12.749,23.68c-3.263,12.077,5.316,16.292-0.797,26.883c-6.098,10.573-14.035,5.266-22.865,14.152
		c-8.809,8.854-3.656,16.803-14.146,22.859c-10.212,5.898-14.555-2.179-26.808,1.122c-12.212,3.281-12,12.424-23.755,12.427
		c-12.235-0.003-11.579-9.546-23.686-12.746c-12.056-3.194-16.361,5.269-26.874-0.803c-10.161-5.866-5.436-13.689-14.373-22.644
		c-8.955-8.976-16.749-4.164-22.638-14.367c-5.892-10.205,2.176-14.567-1.119-26.805c-3.278-12.203-12.426-11.997-12.426-23.755
		c-0.003-11.788,9.164-11.528,12.444-23.752c3.292-12.25-4.809-16.579,1.101-26.805c5.88-10.185,13.695-5.424,22.644-14.364
		c8.967-8.949,4.161-16.761,14.367-22.653c10.206-5.892,14.564,2.173,26.799-1.11C262.331,16.995,262.104,7.84,273.874,7.84
		L273.874,7.84z M273.871,48.892c-33.166,0-60.061,26.895-60.061,60.061c0,33.166,26.895,60.061,60.061,60.061
		c33.166,0,60.061-26.895,60.061-60.061C333.932,75.787,307.037,48.892,273.871,48.892L273.871,48.892z M273.871,39.693
		c38.253,0,69.261,31.008,69.261,69.261c0,38.253-31.008,69.261-69.261,69.261c-38.253,0-69.261-31.008-69.261-69.261
		C204.61,70.701,235.618,39.693,273.871,39.693L273.871,39.693z M369.761,172.349l51.661,89.481
		c0.678,1.173,0.436,3.567-0.904,3.367l-61.527-9.098l-23.134,57.978c-0.504,1.26-2.69,0.274-3.37-0.901l-51.664-89.487
		c3.985-0.448,7.489-1.851,10.842-4.454c4.275-3.328,6.119-6.543,11.722-8.048c5.609-1.513,8.773,0.349,14.146,1.104
		c5.236,0.731,9.74-0.272,14.319-2.913c4.788-2.764,7.985-6.328,9.928-11.507c1.812-4.842,1.776-8.558,5.663-12.468
		c3.85-3.875,7.498-3.818,12.307-5.582C364.036,178.25,367.215,175.818,369.761,172.349L369.761,172.349z M266.916,223.694
		l-51.661,89.478c-0.678,1.176-2.872,2.161-3.367,0.904l-22.883-57.834l-61.778,8.955c-1.343,0.194-1.585-2.194-0.907-3.37
		l51.667-89.487c2.379,3.23,5.346,5.561,9.277,7.164c5.018,2.039,8.725,2.027,12.833,6.128c4.113,4.098,4.08,7.77,6.113,12.8
		c1.988,4.901,5.107,8.301,9.683,10.946c4.788,2.764,9.474,3.752,14.931,2.845c5.095-0.854,8.298-2.743,13.626-1.331
		c5.283,1.4,7.057,4.585,10.988,7.868C258.943,221.685,262.638,223.225,266.916,223.694L266.916,223.694z"/>
</g>
</svg>
