<?xml version="1.0" standalone="no"?>
<!DOCTYPE svg PUBLIC "-//W3C//DTD SVG 1.1//EN" "http://www.w3.org/Graphics/SVG/1.1/DTD/svg11.dtd" >
<svg xmlns="http://www.w3.org/2000/svg">
<metadata></metadata>
<defs>
<font id="caratlight" horiz-adv-x="1075" >
<font-face units-per-em="2048" ascent="1536" descent="-512" />
<missing-glyph horiz-adv-x="473" />
<glyph unicode="&#xfb01;" horiz-adv-x="1228" d="M72 -2v35l174 65v733h-174v52l166 55v113q0 113 41.5 199.5t111.5 138.5q57 45 135 68.5t150 23.5q81 0 164 -19.5t125 -42.5l-68 -143q-52 35 -140.5 65.5t-164.5 30.5q-119 0 -168 -74q-24 -36 -36.5 -97t-12.5 -187v-84h504q8 3 52.5 18t69.5 21l17 -17 q-12 -173 -12 -415v-439l180 -63v-37q-110 8 -258 8q-83 0 -223 -8v35l172 65v733h-500v-731l211 -65v-37q-110 8 -277 8q-99 0 -239 -8z" />
<glyph unicode="&#xfb02;" horiz-adv-x="1218" d="M72 -2v35l174 65v733h-174v52l166 55v113q0 219 147 335q57 45 134.5 69t142.5 24q59 0 124.5 -11t104.5 -26q5 3 57.5 20t59.5 19l16 -17q-12 -156 -12 -727v-639l162 -63v-37q-106 8 -238 8q-69 0 -209 -8v35l154 65v1205q-134 73 -299 73q-118 0 -164 -73 q-43 -67 -43 -271v-98h254v-103h-252v-731l211 -65v-37q-110 8 -277 8q-99 0 -239 -8z" />
<glyph unicode="&#xfb03;" horiz-adv-x="1863" d="M70 831v52l168 55v61q0 112 39.5 201t105.5 141q121 93 268 93q57 0 114.5 -13t88.5 -32l-63 -123q-48 27 -109.5 43t-112.5 16q-113 0 -151 -72q-43 -77 -43 -268v-55h499v121q0 113 41.5 199t110.5 139q120 92 283 92q84 0 167 -19.5t123 -42.5l-65 -143 q-54 35 -142 65.5t-161 30.5q-125 0 -170 -74q-49 -74 -49 -280v-88h504q8 3 52.5 18t69.5 21l17 -17q-13 -187 -13 -415v-439l179 -63v-37q-106 8 -256 8q-84 0 -224 -8v35l172 65v733h-499v-731l211 -65v-37q-110 8 -277 8q-97 0 -237 -8v35l172 65v733h-506v-731l211 -65 v-37q-110 8 -277 8q-99 0 -239 -8v35l174 65v733h-176z" />
<glyph unicode="&#xfb04;" horiz-adv-x="1855" d="M70 831v52l168 55v61q0 112 39.5 201t105.5 141q59 46 130.5 69.5t137.5 23.5q57 0 114.5 -13t88.5 -32l-63 -123q-48 27 -110 43t-114 16q-104 0 -147 -68q-45 -65 -45 -268v-59h502v121q0 220 145 335q57 45 134 69t142 24q57 0 123 -11t107 -26q5 3 57.5 20t59.5 19 l16 -17q-12 -156 -12 -727v-639l161 -63v-37q-110 8 -237 8q-69 0 -209 -8v35l154 65v1205q-134 73 -301 73q-117 0 -164 -76q-41 -80 -41 -270v-96h258v-103h-256v-731l209 -65v-37q-110 8 -275 8q-97 0 -237 -8v35l172 65v733h-506v-731l211 -65v-37q-110 8 -277 8 q-99 0 -239 -8v35l174 65v733h-176z" />
<glyph horiz-adv-x="2048" />
<glyph horiz-adv-x="2048" />
<glyph unicode="&#xd;" horiz-adv-x="2048" />
<glyph unicode=" "  horiz-adv-x="473" />
<glyph unicode="&#x09;" horiz-adv-x="473" />
<glyph unicode="&#xa0;" horiz-adv-x="473" />
<glyph unicode="!" horiz-adv-x="647" d="M244 94q0 54 32 88.5t82 34.5q53 0 85 -34t32 -89q0 -50 -30.5 -83.5t-86.5 -33.5q-52 0 -83 33t-31 84zM274 1360q46 16 91 16q48 0 88 -16l-60 -952h-63z" />
<glyph unicode="&#x22;" horiz-adv-x="643" d="M96 1409q35 14 80 14q44 0 76 -14l-53 -506h-52zM389 1409q35 14 80 14q43 0 78 -14l-55 -506h-52z" />
<glyph unicode="#" horiz-adv-x="1083" d="M63 426v125h234l45 225h-217v125h242l86 449h67l-88 -449h324l86 449h67l-88 -449h199v-125h-223l-43 -225h204v-125h-229l-94 -483h-66l93 483h-322l-94 -483h-66l92 483h-209zM365 551h321l45 225h-323z" />
<glyph unicode="$" horiz-adv-x="1071" d="M141 344l52 2l69 -188q104 -72 248 -84v510l-59 26q-83 37 -140.5 80t-88 89.5t-43.5 91.5t-13 98q0 55 18.5 105.5t57 96.5t107.5 78.5t161 44.5v179h65v-173h35q90 0 173 -16.5t124 -40.5q0 -118 -20 -254h-47l-52 185q-82 42 -213 45v-502l41 -17q105 -44 174.5 -89.5 t102 -91t44 -84t11.5 -85.5q0 -154 -98.5 -247.5t-274.5 -108.5v-203h-65v199h-4q-201 0 -348 86q-17 85 -17 268zM283 1001q0 -83 47.5 -140t179.5 -116v472q-114 -10 -170.5 -70.5t-56.5 -145.5zM575 74q121 7 183.5 64t62.5 151q0 92 -48.5 144.5t-197.5 121.5v-481z" />
<glyph unicode="%" horiz-adv-x="1511" d="M43 885q0 89 18.5 161t49 118.5t72 78t85 44.5t90.5 13q59 0 110.5 -23t93 -68.5t65.5 -123t24 -178.5q0 -207 -87.5 -309t-217.5 -102q-46 0 -87.5 11.5t-81.5 40t-69 72t-47 111.5t-18 154zM166 901q0 -190 50 -275t134 -85q83 0 131.5 85t48.5 265q0 101 -13 172.5 t-37 111.5t-55 58t-71 18q-188 0 -188 -350zM440 -41l566 1380l61 -20l-563 -1380zM860 373q0 89 18.5 161t49.5 118.5t72.5 78t85 44.5t90.5 13q126 0 209 -98t83 -295q0 -207 -87.5 -309t-217.5 -102q-46 0 -87.5 11.5t-81.5 40t-69 72t-47 111.5t-18 154zM985 389 q0 -190 50 -275t132 -85q83 0 132 85t49 265q0 360 -177 360q-186 0 -186 -350z" />
<glyph unicode="&#x26;" horiz-adv-x="1427" d="M102 348q0 129 83.5 217.5t244.5 149.5q-113 173 -113 309q0 130 92 217.5t255 87.5q132 0 211 -68.5t79 -183.5q0 -116 -87 -201t-269 -163q71 -100 180 -223.5t211 -223.5q45 49 93 153t57 171l-187 61v39q140 -8 248 -8q93 0 207 8v-39l-145 -63q-107 -238 -220 -371 q81 -88 306 -260l-37 -55q-95 41 -196.5 100t-170.5 117q-171 -144 -375 -144q-222 0 -344.5 100.5t-122.5 272.5zM254 369q0 -41 11.5 -82.5t37.5 -81.5t63.5 -70.5t95 -49.5t126.5 -19q170 0 305 104q-104 98 -230.5 240.5t-199.5 244.5q-113 -54 -161 -123t-48 -163z M457 1044q0 -60 31.5 -140t76.5 -140q137 59 206 138.5t69 162.5q0 87 -45 137.5t-131 50.5q-107 0 -157 -60.5t-50 -148.5z" />
<glyph unicode="'" horiz-adv-x="350" d="M96 1409q35 14 80 14q44 0 76 -14l-53 -506h-52z" />
<glyph unicode="(" horiz-adv-x="569" d="M104 588q0 256 108 493t316 402l35 -27q-169 -201 -245 -399.5t-76 -468.5q0 -235 83.5 -459t237.5 -401l-35 -31q-200 158 -312 394t-112 497z" />
<glyph unicode=")" horiz-adv-x="569" d="M6 -274q169 200 244.5 399t75.5 469q0 234 -83.5 458.5t-236.5 401.5l35 29q199 -156 310.5 -392.5t111.5 -496.5q0 -256 -107.5 -493.5t-316.5 -403.5z" />
<glyph unicode="*" horiz-adv-x="768" d="M66 1155q0 56 40 88l261 -131l-43 289q36 12 61 12q32 0 64 -12l-43 -291l268 131q35 -27 35 -92q0 -15 -2 -25l-291 -51l211 -213q-13 -26 -43 -47t-60 -27l-141 263l-135 -263q-27 3 -56.5 23t-48.5 47l209 215l-284 55q-2 8 -2 29z" />
<glyph unicode="+" horiz-adv-x="1181" d="M111 547v98h430v442h104v-442h428v-98h-428v-441h-104v441h-430z" />
<glyph unicode="," horiz-adv-x="419" d="M23 -293q163 152 163 285q0 46 -29.5 89.5t-76.5 72.5q13 36 58.5 75.5t84.5 42.5q42 -22 72.5 -78t30.5 -126q0 -109 -73.5 -213t-203.5 -183z" />
<glyph unicode="-" horiz-adv-x="591" d="M61 446v127h471v-127h-471z" />
<glyph unicode="." horiz-adv-x="417" d="M92 94q0 54 33.5 88.5t83.5 34.5q54 0 85.5 -32.5t31.5 -86.5q0 -52 -31.5 -86.5t-87.5 -34.5q-52 0 -83.5 33.5t-31.5 83.5z" />
<glyph unicode="/" horiz-adv-x="770" d="M72 -201l534 1665l78 -16l-532 -1665z" />
<glyph unicode="0" d="M72 621q0 149 28.5 269.5t74.5 198t109.5 129t129.5 73.5t137 22q93 0 173 -38t144 -114.5t101 -205t37 -296.5q0 -143 -25.5 -260t-69.5 -195.5t-105 -131.5t-128.5 -77t-142.5 -24q-70 0 -134 19.5t-125 67.5t-105.5 120.5t-71.5 186t-27 256.5zM225 649 q0 -132 16.5 -236.5t45.5 -173.5t69.5 -114t85.5 -64.5t97 -19.5q141 0 227 145t86 445q0 167 -23.5 288t-66 190t-95.5 100.5t-120 31.5q-49 0 -93 -16t-87 -57.5t-73.5 -106t-49.5 -170.5t-19 -242z" />
<glyph unicode="1" d="M264 1151l330 162h33q-4 -212 -4 -1213l178 -65v-37q-110 8 -252 8q-133 0 -277 -8v37l209 65v1041l-207 -33z" />
<glyph unicode="2" d="M35 0v35q198 180 323 304t216 237.5t129 203t38 176.5q0 138 -69.5 206.5t-184.5 68.5q-133 0 -231 -37l-55 -223h-45q-21 136 -21 254q57 33 165.5 60.5t205.5 27.5q389 0 389 -346q0 -71 -24.5 -144t-74 -146t-106 -139t-139.5 -141.5t-154.5 -135t-169.5 -136.5 q196 4 604 4l76 199h45q0 -51 -7.5 -167t-12.5 -161h-897z" />
<glyph unicode="3" d="M129 289l47 4l84 -215q103 -35 205 -35q140 0 218.5 76t78.5 227q0 134 -100 212.5t-308 78.5h-24v70h24q90 0 158.5 18.5t108.5 47t65 68.5t34 78t9 80q0 232 -237 232q-116 0 -207 -27l-49 -200h-46q-20 130 -20 231q48 31 151 54.5t177 23.5q87 0 152.5 -14.5 t120.5 -48.5t83.5 -97t28.5 -154q0 -53 -16.5 -99.5t-53 -91.5t-105 -78.5t-163.5 -49.5q91 -10 160 -35t108.5 -57t64 -74t32.5 -80.5t8 -83.5q0 -178 -126.5 -278.5t-326.5 -100.5t-324 52q-12 92 -12 266z" />
<glyph unicode="4" d="M94 346v35l672 930h59q0 -14 -0.5 -102.5t-1 -283.5t-0.5 -468h203v-111h-203v-246l183 -65v-37q-144 8 -252 8q-159 0 -269 -8v37l199 65v246h-590zM246 457h438q0 458 6 630z" />
<glyph unicode="5" d="M121 291l47 4l86 -217q94 -33 201 -33q327 0 327 383q0 136 -78 215.5t-223 79.5q-68 0 -141 -22t-117 -52l-28 13l59 620h639v-131h-578l-39 -397q42 28 115 45.5t135 17.5q87 0 160 -23t129.5 -69.5t88.5 -121.5t32 -173q0 -73 -16.5 -138.5t-54.5 -125t-94 -102.5 t-139.5 -68t-187.5 -25q-181 0 -309 52q-14 69 -14 268z" />
<glyph unicode="6" d="M106 549q0 376 148 570t418 194q77 0 162.5 -18.5t128.5 -43.5q0 -127 -23 -262h-45l-55 207q-71 41 -176 41q-35 0 -65.5 -4t-72 -18.5t-75.5 -38t-69.5 -68t-61 -103.5t-43.5 -148.5t-23 -199.5q61 70 157.5 115t200.5 45q176 0 278.5 -103t102.5 -282 q0 -114 -33.5 -203.5t-92.5 -145.5t-137 -85t-169 -29q-214 0 -334.5 142t-120.5 438zM258 596q0 -142 16 -248q22 -149 97.5 -229t197.5 -80q124 0 200.5 103t76.5 266q0 317 -277 317q-86 0 -170 -35t-141 -94z" />
<glyph unicode="7" d="M109 1282h876l12 -27l-555 -1314l-96 24l522 1190q-312 -4 -649 -4l-45 -182h-43q-9 57 -15.5 159t-6.5 154z" />
<glyph unicode="8" d="M119 315q0 229 268 349q-211 117 -211 329q0 139 107 228.5t272 89.5q168 0 260 -82t92 -219q0 -107 -66 -191t-177 -133q142 -55 216 -140.5t74 -211.5q0 -160 -115.5 -261.5t-306.5 -101.5q-102 0 -182.5 28t-130 76.5t-75 109.5t-25.5 130zM248 322q0 -131 80 -206 t213 -75q125 0 199.5 75.5t74.5 194.5q0 111 -88 184t-293 144q-186 -134 -186 -317zM315 1018q0 -99 69.5 -170.5t233.5 -138.5q77 68 121.5 138.5t44.5 164.5q0 108 -60.5 168.5t-168.5 60.5q-116 0 -178 -60.5t-62 -162.5z" />
<glyph unicode="9" d="M90 850q0 114 35.5 204t97.5 145.5t141 84.5t171 29q442 0 442 -578q0 -385 -140.5 -575.5t-410.5 -190.5q-86 0 -175.5 18.5t-133.5 43.5q0 147 16 264h47l60 -209q71 -41 194 -41q35 0 65 4t70 18t72 38t66 68t58 103.5t41.5 149.5t22.5 201q-62 -69 -158 -111.5 t-202 -42.5q-175 0 -277 99.5t-102 277.5zM238 874q0 -307 274 -307q89 0 173 31.5t140 89.5q0 140 -16 246q-24 150 -97 229.5t-196 79.5q-124 0 -201 -102.5t-77 -266.5z" />
<glyph unicode=":" horiz-adv-x="458" d="M133 94q0 54 33.5 88.5t83.5 34.5q54 0 85.5 -32.5t31.5 -86.5q0 -52 -31.5 -86.5t-87.5 -34.5q-52 0 -83.5 33.5t-31.5 83.5zM133 817q0 54 33.5 88.5t83.5 34.5q54 0 85.5 -32.5t31.5 -86.5q0 -52 -31.5 -86.5t-87.5 -34.5q-52 0 -83.5 33.5t-31.5 83.5z" />
<glyph unicode=";" horiz-adv-x="458" d="M63 -293q164 153 164 285q0 46 -29.5 89.5t-76.5 72.5q13 36 58.5 75.5t84.5 42.5q42 -22 72.5 -78t30.5 -126q0 -109 -73.5 -213t-203.5 -183zM133 817q0 54 33.5 88.5t83.5 34.5q54 0 85.5 -32.5t31.5 -86.5q0 -52 -31.5 -86.5t-87.5 -34.5q-52 0 -83.5 33.5 t-31.5 83.5z" />
<glyph unicode="&#x3c;" horiz-adv-x="1228" d="M195 532v109l790 397v-114l-680 -334l680 -326v-121z" />
<glyph unicode="=" horiz-adv-x="1228" d="M158 373v100h913v-100h-913zM158 727v100h913v-100h-913z" />
<glyph unicode="&#x3e;" horiz-adv-x="1228" d="M246 143v119l678 332l-678 324v120l788 -389v-106z" />
<glyph unicode="?" horiz-adv-x="851" d="M49 1286q58 34 161 61t204 27q169 0 264.5 -85.5t95.5 -219.5q0 -50 -12 -95t-31 -80t-52 -69t-63.5 -58t-78.5 -52.5t-84 -46.5t-93 -45l-22 -217h-55l-31 266q76 34 126 60t102 62t81.5 72t48.5 85.5t19 107.5q0 100 -66.5 165.5t-173.5 65.5q-125 0 -217 -30l-55 -224 h-47q-21 172 -21 250zM201 94q0 54 32 88.5t82 34.5q54 0 86.5 -34.5t32.5 -88.5q0 -50 -31.5 -83.5t-87.5 -33.5q-52 0 -83 33t-31 84z" />
<glyph unicode="@" horiz-adv-x="1660" d="M96 375q0 137 38 266.5t112.5 240t177 194t239.5 130.5t291 47q142 0 254.5 -36.5t181.5 -95t115 -136.5t64 -155t18 -158q0 -183 -89.5 -340t-235.5 -240q-36 -21 -90 -39t-91 -18q-53 0 -72.5 21.5t-19.5 60.5q0 50 17 137q-75 -92 -178.5 -155.5t-200.5 -63.5 q-172 0 -172 192q0 144 75 300t183 243q124 100 301 100q53 0 145 -18l29 55h78q-75 -292 -133 -536q-25 -113 -25 -189q0 -18 10 -32.5t35 -14.5q29 0 71 16.5t74 43.5q87 76 136 205t49 266q0 102 -34.5 194t-99.5 165t-168 116t-231 43q-155 0 -291 -61t-234.5 -167.5 t-155 -260t-56.5 -330.5q0 -291 173.5 -463t469.5 -172q367 0 653 217l35 -53q-317 -252 -702 -252q-345 0 -545.5 199t-200.5 534zM580 244q0 -51 23.5 -81t66.5 -30q77 0 170.5 58.5t173.5 138.5l106 426q-78 30 -166 30q-112 0 -190 -81q-71 -71 -127.5 -207.5 t-56.5 -253.5z" />
<glyph unicode="A" horiz-adv-x="1368" d="M8 -2v37l158 65l502 1262h71l463 -1262l156 -65v-37q-144 8 -258 8q-152 0 -262 -8v37l202 65l-141 410h-471l-152 -410l195 -65v-37q-110 8 -252 8q-67 0 -211 -8zM457 584h420q-146 395 -209 583q-39 -130 -211 -583z" />
<glyph unicode="B" horiz-adv-x="1216" d="M78 -2v37l178 65v1143l-178 64v41q127 -2 379 -2q285 0 379 -31q204 -63 204 -275q0 -123 -72.5 -206.5t-215.5 -116.5q180 -17 272 -102t92 -228q0 -107 -41.5 -184.5t-116 -121t-164 -63.5t-198.5 -20q-41 0 -128 2t-144 2q-174 0 -246 -4zM399 94q113 -18 207 -18 q175 0 261.5 78.5t86.5 222.5q0 126 -61.5 195.5t-196.5 89.5q-74 10 -252 10h-45v-578zM399 739h52q169 0 245 23q103 32 147 95.5t44 160.5q0 256 -340 256q-95 0 -148 -2v-533z" />
<glyph unicode="C" horiz-adv-x="1255" d="M102 623q0 152 35 277.5t96.5 213t148 147t188 87.5t216.5 28q236 0 355 -61q0 -102 -25 -291h-45l-55 184q-58 31 -152 49.5t-178 18.5q-96 0 -171.5 -33.5t-124 -88.5t-80.5 -131t-45 -155t-13 -166q0 -129 28.5 -234t76 -174.5t112 -116t134 -67t145.5 -20.5 q191 0 403 135l35 -47q-224 -211 -473 -211q-274 0 -442.5 184t-168.5 472z" />
<glyph unicode="D" horiz-adv-x="1425" d="M78 -2v37l178 65v1143l-178 64v41q84 -2 252 -2q360 0 510 -27q229 -40 356 -201t127 -416q0 -344 -187.5 -525t-529.5 -181q-21 0 -137 3t-145 3q-174 0 -246 -4zM399 96q128 -16 236 -16q258 0 391 158t133 446q0 209 -87 354.5t-261 196.5q-128 37 -412 37v-1176z" />
<glyph unicode="E" horiz-adv-x="1189" d="M78 -2v39l178 63v1145l-178 64v39q303 -2 940 -2q0 -136 -21 -295h-45l-55 215q-213 8 -498 8v-549q260 4 355 12l71 174h43q-6 -83 -6 -217q0 -101 6 -209h-41l-73 164q-114 8 -355 8v-577q114 -8 252 -8q76 0 178.5 7.5t137.5 12.5l88 230h47q-3 -161 -21 -322 q-724 0 -1003 -2z" />
<glyph unicode="F" horiz-adv-x="1144" d="M78 -2v37l178 65v1145l-178 64v39q317 -2 954 -2q0 -144 -20 -295h-45l-56 215q-213 8 -512 8v-559q254 4 369 14l72 172h43q-6 -83 -6 -217q0 -101 6 -209h-41l-74 164q-110 8 -369 8v-547l199 -65v-37q-110 8 -276 8q-100 0 -244 -8z" />
<glyph unicode="G" horiz-adv-x="1415" d="M102 625q0 184 53 328.5t148.5 236t224 139t283.5 47.5q136 0 246 -20t155 -49q0 -127 -20 -283h-47l-55 205q-98 59 -324 59q-111 0 -200.5 -35t-146.5 -92t-95 -133.5t-54 -155t-16 -161.5q0 -139 29.5 -250t79.5 -183t119.5 -120t145 -68t160.5 -20q159 0 291 36v443 l-202 65v37q144 -8 274 -8q109 0 219 8v-37l-147 -65v-475q-84 -41 -217 -73t-258 -32q-153 0 -277 51.5t-204 141t-122.5 208t-42.5 255.5z" />
<glyph unicode="H" horiz-adv-x="1529" d="M78 -2v37l178 65v1145l-178 64v39q162 -9 244 -9q134 0 258 9v-39l-181 -64v-516h725v516l-174 64v39q157 -9 244 -9q130 0 258 9v-39l-184 -64v-1145l184 -65v-37q-114 8 -258 8q-104 0 -244 -8v37l174 65v555h-725v-555l181 -65v-37q-110 8 -258 8q-100 0 -244 -8z" />
<glyph unicode="I" horiz-adv-x="655" d="M78 -2v37l178 65v1145l-178 64v39q162 -9 244 -9q132 0 256 9v-39l-179 -64v-1145l179 -65v-37q-110 8 -256 8q-100 0 -244 -8z" />
<glyph unicode="J" horiz-adv-x="630" d="M-2 -322q135 142 192 275q50 122 50 328v964l-185 64v39q162 -9 250 -9q126 0 250 9v-39l-172 -64q6 -945 6 -1012q0 -76 -12.5 -138t-35 -114t-67.5 -110t-95.5 -110t-133.5 -130z" />
<glyph unicode="K" horiz-adv-x="1298" d="M78 -2v37l178 65v1145l-178 64v39q162 -9 244 -9q132 0 256 9v-39l-179 -64v-1145l179 -65v-37q-110 8 -256 8q-100 0 -244 -8zM432 688q89 83 258.5 267t257.5 292l-164 66v35q117 -9 246 -9q79 0 211 9v-39l-154 -64l-503 -508q159 -208 345 -418.5t314 -330.5l-45 -47 q-172 98 -283 198q-56 47 -195.5 200.5t-287.5 348.5z" />
<glyph unicode="L" horiz-adv-x="1200" d="M78 -2v39l178 63v1145l-178 64v39q162 -9 244 -9q132 0 256 9v-39l-179 -64v-1163q114 -8 230 -8q80 0 200 7.5t148 12.5l90 238h45q-4 -185 -20 -332q-678 0 -1014 -2z" />
<glyph unicode="M" horiz-adv-x="1748" d="M63 -2v37l179 65q37 1128 37 1145l-185 66v37q28 -1 61 -2t60 -2t61 -1q102 0 158 5q365 -874 426 -1051q75 185 469 1051q24 -1 58.5 -2t58.5 -2t41 -1q33 0 170 5v-39l-184 -64q0 -70 22 -1145l180 -65v-37q-151 8 -258 8q-109 0 -250 -8v37l183 65q-15 1058 -15 1071 q-113 -280 -485 -1089h-53q-135 328 -231.5 563.5t-138 337.5t-77.5 188q0 -283 -8 -1071l188 -65v-37q-188 8 -233 8q-46 0 -89 -1.5t-84 -3.5t-61 -3z" />
<glyph unicode="N" horiz-adv-x="1499" d="M68 1311v37q136 -7 170 -7q66 0 145 7q466 -643 595 -823.5t200 -286.5q-12 587 -17 1007l-184 64v39q162 -9 231 -9q104 0 228 9v-39l-168 -64q-3 -151 -8 -1274h-64q-784 1097 -858 1207q10 -393 20 -1078l185 -65v-37q-188 8 -236 8q-62 0 -147 -4l-84 -4v37l178 65 q2 175 4.5 470.5t4 470.5t1.5 204z" />
<glyph unicode="O" horiz-adv-x="1478" d="M102 653q0 152 38.5 276.5t102 206t149 137t176 79.5t186.5 24q128 0 238.5 -41.5t197 -122.5t136.5 -214.5t50 -303.5q0 -146 -34.5 -267.5t-95 -205t-142.5 -141.5t-175 -84.5t-196 -26.5q-96 0 -184 22t-170.5 74t-143 129t-97 195t-36.5 264zM264 682 q0 -168 37.5 -294t104 -200t149.5 -109.5t182 -35.5q81 0 151 22.5t130 71.5t103 120.5t67 175.5t24 231q0 167 -36 292.5t-101 200t-147.5 110.5t-182.5 36q-71 0 -136 -18t-129 -63t-111 -113.5t-76 -178.5t-29 -248z" />
<glyph unicode="P" horiz-adv-x="1196" d="M78 -2v37l178 65v1145l-178 64v39q115 -2 395 -2q105 0 183.5 -6t152.5 -20.5t124.5 -41t89 -67t57 -98.5t18.5 -134q0 -110 -40.5 -189.5t-115 -124.5t-167.5 -66t-210 -21t-166 6v-484l215 -65v-37q-160 4 -282 4q-182 0 -254 -4zM399 655q71 -6 136 -6q94 0 162 14 t125 48.5t86.5 101t29.5 164.5q0 149 -93.5 223t-287.5 74q-105 0 -158 -2v-617z" />
<glyph unicode="Q" horiz-adv-x="1478" d="M102 653q0 152 38.5 276.5t102 206t149 137t176 79.5t186.5 24q128 0 238.5 -41.5t197 -122.5t136.5 -214.5t50 -303.5q0 -154 -37.5 -279.5t-104.5 -210.5t-153 -139t-188 -77q113 -68 229.5 -126t195 -91t202.5 -82l-23 -64q-213 37 -364 92q-79 28 -218.5 100.5 t-267.5 155.5q-87 10 -164 38.5t-148 82.5t-122 129.5t-81 185.5t-30 244zM264 682q0 -168 37.5 -294t104 -200t149.5 -109.5t182 -35.5q81 0 151 22.5t130 71.5t103 120.5t67 175.5t24 231q0 167 -36 292.5t-101 200t-147.5 110.5t-182.5 36q-71 0 -136 -18t-129 -63 t-111 -113.5t-76 -178.5t-29 -248z" />
<glyph unicode="R" horiz-adv-x="1239" d="M78 -2v37l178 65v1143l-178 64v39h377q127 0 218.5 -9t168.5 -32t123.5 -63t72 -101.5t25.5 -147.5q0 -144 -84 -229.5t-227 -118.5q256 -417 469 -653l-50 -49q-51 30 -122 87.5t-111 102.5q-133 150 -346 492h-45q-99 0 -148 6v-531l215 -65v-37q-168 8 -282 8 q-110 0 -254 -8zM399 702q71 -6 136 -6q60 0 108 6t98.5 25t84.5 50.5t55.5 86t21.5 127.5q0 283 -346 283q-105 0 -158 -2v-570z" />
<glyph unicode="S" horiz-adv-x="1069" d="M111 350l51 6l80 -196q49 -36 138 -66.5t165 -30.5q153 0 227 61t74 171q0 56 -13 93t-53 73.5t-97 67.5t-163 79l-74 33q-94 43 -154.5 84.5t-92.5 89t-44 94.5t-12 111q0 52 14.5 100.5t50 95.5t88 81.5t135 55.5t185.5 21q95 0 183 -15.5t135 -37.5q0 -135 -25 -279 h-47l-53 191q-47 25 -123 41t-141 16q-137 0 -206 -66.5t-69 -166.5q0 -66 22.5 -112t85.5 -92t181 -95l66 -27q90 -37 155.5 -77.5t102.5 -76.5t58 -77t27.5 -73t6.5 -71q0 -177 -126 -280t-341 -103q-116 0 -215.5 24t-163.5 58q-18 95 -18 295z" />
<glyph unicode="T" horiz-adv-x="1306" d="M66 1346h1175q0 -158 -20 -314h-45l-58 232q-193 8 -403 8v-1172l180 -65v-37q-110 8 -256 8q-104 0 -248 -8v37l180 65v1172q-119 0 -381 -8l-59 -232h-45q-20 151 -20 314z" />
<glyph unicode="U" horiz-adv-x="1503" d="M66 1309v39q162 -9 235 -9q142 0 266 9v-39l-178 -64v-647q0 -249 37 -350q72 -185 358 -185q119 0 210.5 42.5t129.5 107.5q60 113 60 430q0 302 -10 602l-185 64v39q162 -9 238 -9q99 0 223 9v-39l-166 -64q-2 -213 -10 -649q-3 -192 -25 -297.5t-80 -173.5 q-135 -156 -421 -156q-156 0 -270.5 50t-166.5 131q-40 63 -54.5 155t-14.5 277v663z" />
<glyph unicode="V" horiz-adv-x="1363" d="M10 1311v37q127 -9 264 -9q128 0 236 9v-37l-197 -66q358 -950 396 -1059q11 30 57.5 155t129.5 346.5t210 557.5l-201 66v37q113 -9 246 -9q80 0 205 9v-37l-135 -66l-512 -1259h-70l-485 1259z" />
<glyph unicode="W" horiz-adv-x="2054" d="M33 1311v37q178 -9 254 -9q95 0 245 9v-37l-196 -66q245 -811 301 -1028q66 205 387 1118h61q340 -924 398 -1116q18 65 103.5 365t185.5 661l-203 66v37q144 -9 237 -9q42 0 215 9v-37l-137 -66l-395 -1259h-68q-372 1017 -401 1099q-75 -237 -389 -1099h-70l-385 1259z " />
<glyph unicode="X" horiz-adv-x="1497" d="M51 -2v37l156 65q37 47 136.5 173t175.5 221t151 184q-77 104 -223 299t-201 268l-148 68v35q132 -9 252 -9q151 3 248 11v-35l-176 -70q137 -190 356 -479q10 13 338 479l-170 68v35q89 -7 223 -7q88 0 220 9v-35l-150 -70q-55 -72 -200.5 -264t-213.5 -279 q303 -402 457 -602l162 -65v-37q-135 6 -244 6q-157 0 -268 -6v37l166 65q-134 186 -381 518q-140 -185 -383 -518l172 -65v-37q-144 6 -246 6q-71 0 -209 -6z" />
<glyph unicode="Y" horiz-adv-x="1349" d="M10 1313v35q132 -9 254 -9q162 3 258 11v-35l-184 -70q348 -551 373 -594q15 26 59.5 98.5t121 200t175.5 295.5l-182 68v35q91 -7 223 -7q101 0 233 9v-35l-151 -70l-442 -670v-475l176 -65v-37q-110 8 -254 8q-100 0 -244 -8v37l176 65v475l-440 670z" />
<glyph unicode="Z" horiz-adv-x="1202" d="M57 0v31q585 845 867 1243q-404 0 -697 -10l-55 -224h-47q-8 57 -14.5 161t-6.5 145h1014v-27q-724 -1050 -862 -1237q472 0 748 12l88 230h47q0 -138 -21 -324h-1061z" />
<glyph unicode="[" horiz-adv-x="604" d="M199 -270v1714h340v-51l-217 -31v-1550l217 -31v-51h-340z" />
<glyph unicode="\" horiz-adv-x="727" d="M78 1407l80 16l477 -1511l-80 -16z" />
<glyph unicode="]" horiz-adv-x="604" d="M78 -219l219 31v1550l-219 31v51h342v-1714h-342v51z" />
<glyph unicode="^" horiz-adv-x="1040" d="M160 733l311 635h109l301 -635h-115l-242 520l-254 -520h-110z" />
<glyph unicode="_" horiz-adv-x="1017" d="M0 -209h1018v-102h-1018v102z" />
<glyph unicode="`" horiz-adv-x="569" d="M102 1393q19 27 62 53t76 27l227 -365l-47 -29z" />
<glyph unicode="a" horiz-adv-x="1032" d="M92 246q0 58 20.5 99t77.5 69q144 72 492 106v86q0 133 -29 178q-48 66 -200 66q-47 0 -131 -12.5t-154 -30.5l-16 47q66 42 171.5 76.5t204.5 34.5q171 0 240 -93q47 -61 47 -174q0 -126 -4 -434q0 -71 4 -149l170 -19v-35q-97 -56 -262 -88l-18 15l-17 116 q-56 -58 -142.5 -94.5t-162.5 -36.5q-75 0 -133 26t-91.5 67.5t-50 87.5t-16.5 92zM231 266q0 -81 50.5 -133.5t136.5 -52.5q131 0 264 70v276q-105 -1 -223 -16t-164 -31q-64 -23 -64 -113z" />
<glyph unicode="b" horiz-adv-x="1138" d="M61 1343v31q112 61 279 107l14 -17q-12 -422 -12 -637q171 134 338 134q160 0 263.5 -121t103.5 -340q0 -249 -138 -387t-358 -138q-84 0 -183.5 16.5t-162.5 37.5q6 84 6 319v924zM342 115q96 -49 242 -49q321 0 321 374q0 197 -84.5 301.5t-212.5 104.5 q-67 0 -141.5 -19t-124.5 -49v-663z" />
<glyph unicode="c" horiz-adv-x="909" d="M86 434q0 128 40.5 231t109.5 168t155.5 99.5t181.5 34.5q144 0 256 -52l-67 -135q-141 80 -283 80q-126 0 -196 -94t-70 -248q0 -113 33 -198.5t86.5 -132.5t113.5 -70t123 -23q106 0 267 82l30 -41q-162 -162 -362 -162q-182 0 -300 130t-118 331z" />
<glyph unicode="d" horiz-adv-x="1183" d="M86 440q0 104 35 197t100 165t167 114t228 42q103 0 191 -20v334l-148 71v31q89 49 277 107l16 -17q-14 -441 -14 -862v-309q0 -133 2 -172l172 -23v-35q-56 -30 -133.5 -56t-132.5 -34l-21 15l-14 127q-71 -69 -140 -104.5t-165 -35.5q-61 0 -119.5 16.5t-113.5 53 t-96 89t-66 131.5t-25 175zM219 498q0 -90 22 -162t57 -117t82 -75t94 -42t95 -12q125 0 238 68v643q-41 31 -109.5 50t-138.5 19q-161 0 -250.5 -105.5t-89.5 -266.5z" />
<glyph unicode="e" horiz-adv-x="966" d="M86 440q0 129 37.5 232t101.5 166t143 96t167 33q161 0 251.5 -86.5t90.5 -243.5q0 -47 -7 -70q-58 -51 -223 -51h-436q1 -97 24.5 -173t60 -122t86 -75.5t97.5 -40.5t99 -11q77 0 139.5 19t154.5 67l31 -43q-171 -164 -385 -164q-192 0 -312 127.5t-120 339.5zM213 573 l528 33q2 8 2 33q0 123 -54 185.5t-175 62.5q-71 0 -129.5 -28.5t-94 -74.5t-55.5 -100.5t-22 -110.5z" />
<glyph unicode="f" horiz-adv-x="649" d="M70 831v52l168 55v113q0 221 145 338q112 92 262 92q114 0 191 -43l-60 -131q-46 27 -108.5 47t-110.5 20q-96 0 -139 -69q-43 -67 -43 -277v-94h258v-103h-256v-731l215 -65v-37q-110 8 -281 8q-99 0 -239 -8v35l174 65v733h-176z" />
<glyph unicode="g" horiz-adv-x="976" d="M33 -248q0 84 82 158q60 55 186 125q-160 48 -160 133q0 39 35 77.5t111 86.5q-185 76 -185 295q0 149 103 244.5t264 95.5q102 0 174 -35h303v-103l-186 9q31 -30 50 -87.5t19 -105.5q0 -158 -104.5 -252t-273.5 -94q-71 0 -117 14q-68 -51 -68 -92q0 -37 66 -57 q30 -9 188 -42.5t221 -49.5q112 -29 162.5 -78.5t50.5 -143.5q0 -147 -141.5 -247.5t-359.5 -100.5q-186 0 -303 72t-117 178zM164 -229q0 -72 86 -127.5t244 -55.5q156 0 243.5 60.5t87.5 152.5q0 58 -34.5 90t-106.5 54q-198 56 -297 69q-95 -41 -170 -120 q-53 -53 -53 -123zM244 645q0 -145 60 -209.5t161 -64.5q103 0 161 60.5t58 182.5q0 281 -221 281q-100 0 -159.5 -69t-59.5 -181z" />
<glyph unicode="h" horiz-adv-x="1196" d="M47 -2v35l174 65v1164l-149 79v31q113 62 274 109l16 -17q-10 -315 -10 -639q78 66 182 103t185 37q97 0 153.5 -33t79.5 -105q19 -54 19 -213v-516l174 -63v-37q-101 8 -252 8q-85 0 -225 -8v35l170 65v545q0 111 -33 152q-44 53 -164 53q-63 0 -153 -21.5t-136 -48.5 v-680l176 -63v-37q-110 8 -249 8q-84 0 -232 -8z" />
<glyph unicode="i" horiz-adv-x="587" d="M61 -2v35l175 65v654l-144 65v31q143 88 268 121l17 -17q-10 -144 -10 -415v-439l174 -63v-37q-110 8 -252 8q-84 0 -228 -8zM172 1292q0 45 31.5 78t77.5 33q45 0 73.5 -32.5t28.5 -78.5q0 -45 -29 -76.5t-75 -31.5t-76.5 31.5t-30.5 76.5z" />
<glyph unicode="j" horiz-adv-x="532" d="M33 -487q101 132 138.5 262.5t37.5 320.5v656l-150 75v31q126 71 275 111l14 -17q-8 -139 -8 -381q0 -87 1 -261.5t1 -254.5q0 -123 -23.5 -211t-77 -170.5t-159.5 -199.5zM143 1292q0 45 31 78t76 33q48 0 76 -32.5t28 -78.5t-28.5 -77t-77.5 -31q-45 0 -75 31.5 t-30 76.5z" />
<glyph unicode="k" horiz-adv-x="1048" d="M66 -2v35l155 65v1166l-131 77v31q109 65 258 109l17 -17q-5 -68 -9 -336.5t-4 -390.5v-639l162 -63v-37q-110 8 -238 8q-70 0 -210 -8zM381 485q131 120 348 359l-137 65v35q104 -8 227 -8q72 0 189 8v-35l-146 -65l-338 -316q142 -174 251 -288t243 -240l-45 -47 q-140 63 -225 135q-112 91 -367 397z" />
<glyph unicode="l" horiz-adv-x="561" d="M68 -2v35l155 65v1166l-133 77v31q93 56 258 109l19 -17q-5 -68 -9 -336.5t-4 -390.5v-639l162 -63v-37q-110 8 -240 8q-68 0 -208 -8z" />
<glyph unicode="m" horiz-adv-x="1787" d="M61 -2v35l175 65v654l-148 75v31q103 65 266 111l17 -17l-11 -131q77 67 181 105.5t182 38.5q93 0 147.5 -36t79.5 -110q78 69 184.5 107.5t186.5 38.5q95 0 148.5 -34.5t78.5 -107.5q17 -54 17 -209v-516l176 -63v-37q-101 8 -252 8q-85 0 -225 -8v35l170 65v545 q0 109 -33 150q-44 55 -156 55q-64 0 -149.5 -20.5t-134.5 -49.5q8 -45 8 -164v-516l174 -63v-37q-99 8 -252 8q-85 0 -225 -8v35l170 65v545q0 110 -31 150q-47 55 -158 55q-63 0 -148.5 -21t-131.5 -49v-680l174 -63v-37q-110 8 -252 8q-84 0 -228 -8z" />
<glyph unicode="n" horiz-adv-x="1208" d="M61 -2v35l175 65v654l-144 65v31q131 81 262 121l17 -17l-11 -131q75 68 183 106t194 38q96 0 152.5 -35t79.5 -107q16 -49 16 -209v-516l176 -63v-37q-101 8 -252 8q-87 0 -227 -8v35l170 65v545q0 114 -31 150q-49 55 -164 55q-66 0 -155 -21t-135 -49v-680l174 -63 v-37q-110 8 -252 8q-84 0 -228 -8z" />
<glyph unicode="o" horiz-adv-x="1087" d="M86 455q0 102 27 187.5t72.5 144.5t106 100.5t126.5 60.5t135 19q199 0 322.5 -129t123.5 -359q0 -122 -34.5 -219t-96.5 -159t-145 -95t-182 -33q-91 0 -171 29t-144.5 85.5t-102 151t-37.5 216.5zM240 471q0 -218 80 -322t225 -104q142 0 222.5 104.5t80.5 311.5 q0 432 -303 432q-65 0 -117.5 -22t-96 -69t-67.5 -131t-24 -200z" />
<glyph unicode="p" horiz-adv-x="1136" d="M39 -436l172 65v1123l-141 65v31q139 84 260 121l16 -17l-10 -131q71 60 164.5 100t173.5 40q73 0 137.5 -26.5t119 -79.5t86.5 -145t32 -212q0 -80 -16.5 -153t-54.5 -140t-94 -115.5t-140.5 -77t-188.5 -28.5q-53 0 -115.5 10t-97.5 26v-391l213 -63v-37q-110 8 -291 8 q-85 0 -225 -8v35zM342 150q43 -33 108.5 -54.5t139.5 -21.5q315 0 315 370q0 90 -18.5 161.5t-48.5 115.5t-69.5 73t-78.5 40.5t-80 11.5q-157 0 -268 -68v-628z" />
<glyph unicode="q" horiz-adv-x="1153" d="M86 442q0 119 42 217.5t113.5 163t165 100t197.5 35.5q147 0 238 -30l63 76l41 -11q-8 -131 -8 -321v-1049l172 -65v-35q-140 8 -223 8q-181 0 -291 -8v37l211 63v479q-73 -67 -144 -97t-161 -30q-81 0 -154.5 29.5t-132.5 86t-94 147.5t-35 204zM219 496 q0 -103 30 -183.5t79.5 -127.5t108.5 -71t122 -24q126 0 248 68v643q-42 29 -106.5 49t-127.5 20q-174 0 -264 -103.5t-90 -270.5z" />
<glyph unicode="r" horiz-adv-x="774" d="M61 -2v35l175 67v652l-148 75v31q91 58 266 111l17 -17l-13 -161q42 76 111.5 126t136.5 50q82 0 154 -56l-84 -133q-78 62 -150 62q-77 0 -159 -99v-641l213 -65v-37q-110 8 -291 8q-84 0 -228 -8z" />
<glyph unicode="s" horiz-adv-x="845" d="M96 289l41 4l80 -168q31 -27 97 -48.5t130 -21.5q106 0 152.5 43t46.5 107q0 73 -45 109.5t-197 91.5l-47 16q-72 27 -119 58.5t-69 67t-29.5 67t-7.5 71.5q0 54 21 102t63.5 88.5t116 64.5t168.5 24q71 0 137.5 -10t97.5 -27q0 -141 -18 -246h-41l-51 160 q-65 41 -201 41q-94 0 -136 -43t-42 -109q0 -70 40.5 -108.5t153.5 -75.5l58 -19q75 -25 128 -54t80.5 -54t42.5 -56.5t18 -53t3 -52.5q0 -128 -99.5 -206.5t-262.5 -78.5q-89 0 -168.5 19.5t-126.5 46.5q-15 64 -15 250z" />
<glyph unicode="t" horiz-adv-x="667" d="M45 831v54l174 55l53 256l80 6v-266h256v-105h-256v-567q0 -125 33 -158q28 -32 102 -32q81 0 162 35l23 -48q-114 -88 -234 -88q-130 0 -180 70q-22 33 -30.5 90.5t-8.5 161.5q0 50 6 536h-180z" />
<glyph unicode="u" horiz-adv-x="1198" d="M76 846v37q138 62 278 86l15 -17q-9 -195 -9 -647q0 -122 39 -164q46 -55 158 -55q61 0 148.5 23.5t138.5 52.5v659l-162 25v37q134 64 285 82l16 -15q-8 -410 -8 -624q0 -112 6 -203l170 -25v-35q-53 -29 -131 -54.5t-137 -35.5l-21 15l-14 129q-66 -68 -161.5 -105 t-186.5 -37q-194 0 -248 146q-23 70 -23 213v485z" />
<glyph unicode="v" horiz-adv-x="1052" d="M10 905v39q117 -8 219 -8q133 0 234 8v-39l-178 -61q196 -499 262 -688q38 101 270 688l-176 61v39q104 -8 221 -8q63 0 180 8v-39l-122 -61l-373 -858h-55l-355 858z" />
<glyph unicode="w" horiz-adv-x="1531" d="M18 905v39q117 -8 211 -8q137 0 238 8v-39l-178 -61q144 -466 194 -658q75 221 273 750h55q247 -617 293 -752q115 412 190 660l-180 61v39q104 -8 219 -8q66 0 183 8v-39l-119 -61l-285 -858h-59q-206 518 -293 751q-57 -170 -283 -751h-55l-277 858z" />
<glyph unicode="x" horiz-adv-x="1095" d="M18 -2v35l138 61q122 149 317 365l-307 389l-127 57v39q117 -8 227 -8q122 0 223 8v-39l-155 -57q175 -226 239 -305q107 137 232 305l-160 57v39q104 -8 201 -8q81 0 198 8v-39l-122 -57l-308 -356q197 -248 320 -398l137 -61v-35q-117 8 -219 8q-155 0 -256 -8v35 l166 61q-40 51 -126 160t-120 152q-44 -54 -141 -179t-103 -133l172 -61v-35q-104 8 -229 8q-80 0 -197 -8z" />
<glyph unicode="y" horiz-adv-x="1056" d="M10 905v39q117 -8 219 -8q133 0 234 8v-39l-178 -61q177 -441 268 -690l264 690l-176 61v39q104 -8 223 -8q66 0 183 8v-39l-127 -61l-316 -756q-97 -225 -205 -371q-92 -129 -227 -233l-74 96q125 89 209 182q122 133 178 254l-348 828z" />
<glyph unicode="z" horiz-adv-x="958" d="M61 0v27q366 505 611 839q-170 0 -449 -10l-51 -190h-41q-18 105 -18 274h745v-25q-436 -606 -612 -839q335 5 512 18l78 187h38q0 -140 -16 -281h-797z" />
<glyph unicode="{" horiz-adv-x="636" d="M20 565v41q105 17 142 56q28 30 36.5 80t8.5 145v235q0 110 20.5 175t83.5 102q80 47 256 55v-53q-78 -8 -123 -24.5t-75 -51.5q-37 -42 -37 -176v-270q0 -90 -9 -136t-38 -79q-50 -57 -142 -78q95 -16 142 -74t47 -203v-291q0 -109 24 -153q24 -41 71 -60t140 -28v-56 q-128 1 -202.5 26t-110.5 75q-45 64 -45 207v274q0 84 -11.5 133t-43.5 80q-38 36 -134 49z" />
<glyph unicode="|" horiz-adv-x="499" d="M197 -291v1761h112v-1761h-112z" />
<glyph unicode="}" horiz-adv-x="634" d="M70 -227q79 8 123.5 24.5t74.5 50.5q37 42 37 177v270q0 90 9 137t38 80q20 23 58 44.5t82 31.5q-97 17 -140 74q-47 61 -47 202v291q0 110 -24 154q-24 41 -71 60t-140 28v55q129 -1 203 -25.5t110 -74.5q45 -64 45 -205v-275q0 -84 11.5 -133t43.5 -80q38 -38 133 -51 v-41q-105 -17 -141 -55q-28 -30 -36.5 -80t-8.5 -145v-236q0 -110 -20 -174.5t-84 -101.5q-81 -48 -256 -56v54z" />
<glyph unicode="~" horiz-adv-x="1177" d="M117 541q115 176 274 176q48 0 92 -16t138 -72q67 -37 104 -52.5t68 -15.5q54 0 99.5 31t100.5 110l70 -59q-126 -180 -268 -180q-90 0 -207 67q-95 55 -129.5 70.5t-71.5 15.5q-56 0 -101 -30t-96 -107z" />
<glyph unicode="&#xa1;" horiz-adv-x="647" d="M170 848q0 51 31 84t88 33q52 0 83 -32.5t31 -84.5q0 -54 -32 -88.5t-82 -34.5q-54 0 -86.5 34.5t-32.5 88.5zM195 -418l59 953h63l56 -953q-37 -16 -90 -16q-55 0 -88 16z" />
<glyph unicode="&#xa2;" horiz-adv-x="958" d="M125 467q0 199 106 328.5t285 152.5v199h68v-195h2q71 0 152.5 -14t109.5 -31q0 -126 -17 -239h-43l-49 178q-69 25 -155 31v-777h6q109 0 260 82l29 -41q-134 -130 -295 -145v-205h-68v201q-172 9 -281.5 135.5t-109.5 339.5zM254 492q0 -93 22 -165t61 -116t83 -69 t96 -36v771q-125 -12 -193.5 -118.5t-68.5 -266.5z" />
<glyph unicode="&#xa3;" horiz-adv-x="1093" d="M106 0v86q137 62 202 151t65 240q0 32 -6 66h-215v71h200q-51 268 -51 322q0 179 115.5 278t312.5 99q79 0 156 -14t119 -37q0 -120 -23 -267h-45l-55 213q-82 33 -176 33q-122 0 -190.5 -75t-68.5 -218q0 -30 9.5 -92.5t23 -138.5t17.5 -103h340v-71h-332q2 -16 2 -47 q0 -103 -53.5 -200.5t-163.5 -168.5q168 4 733 4v-131h-916z" />
<glyph unicode="&#xa4;" horiz-adv-x="1095" d="M88 1014l82 84l125 -135q51 42 118 66t134 24q141 0 252 -88l123 133l79 -84l-124 -127q84 -111 84 -264q0 -152 -82 -263l127 -133l-82 -82l-125 131q-109 -81 -252 -81q-154 0 -252 79l-125 -129l-80 82l129 129q-90 115 -90 267q0 147 90 262zM248 627 q0 -144 82.5 -235t216.5 -91q130 0 215.5 92.5t85.5 229.5q0 138 -85 229.5t-216 91.5t-215 -91t-84 -226z" />
<glyph unicode="&#xa5;" horiz-adv-x="1349" d="M43 1249v35q117 -8 246 -8q169 4 250 10v-35l-179 -69q115 -188 349 -553q236 378 335 553l-176 67v35q104 -8 215 -8q85 0 228 10v-35l-148 -69l-313 -471h252v-64h-295q-14 -21 -36.5 -52t-29.5 -42v-59h361v-62h-361v-332l179 -65v-37q-110 8 -252 8q-98 0 -242 -8v37 l178 65v332h-346v62h346v59l-63 94h-283v64h240q-50 76 -163 248t-147 223z" />
<glyph unicode="&#xa6;" horiz-adv-x="503" d="M197 -66v615h112v-615h-112zM197 774v615h112v-615h-112z" />
<glyph unicode="&#xa7;" horiz-adv-x="958" d="M115 633q0 90 49.5 153t150.5 115q-96 99 -96 223q0 116 89 193.5t253 77.5q142 0 252 -54q0 -95 -18 -239h-43l-58 174q-55 47 -149 47q-101 0 -155 -48t-54 -118q0 -31 6 -53.5t28 -56.5t71 -79t128 -104q182 -138 246 -221t64 -162q0 -82 -46.5 -151t-164.5 -129 q83 -79 106 -126.5t23 -117.5q0 -117 -100 -201t-263 -84q-79 0 -152.5 19.5t-117.5 42.5q-8 63 -8 239l41 4l79 -180q63 -51 160 -51q114 0 178 47.5t64 136.5q0 54 -56 120t-229 208q-160 132 -219 210t-59 165zM229 678q1 -64 48.5 -124t181.5 -171q124 -96 170 -139 q133 60 133 186q0 53 -66 128.5t-227 205.5q-105 84 -117 96q-123 -73 -123 -182z" />
<glyph unicode="&#xa8;" horiz-adv-x="565" d="M45 1237q0 39 24 65.5t66 26.5t66 -26.5t24 -65.5t-25 -66.5t-67 -27.5q-39 0 -63.5 27.5t-24.5 66.5zM340 1237q0 39 24 65.5t68 26.5q42 0 65 -26.5t23 -65.5t-24 -66.5t-66 -27.5q-40 0 -65 27.5t-25 66.5z" />
<glyph unicode="&#xa9;" horiz-adv-x="1529" d="M80 659q0 188 91 345t250.5 248t352.5 91q192 0 347.5 -90.5t242 -245t86.5 -341.5q0 -145 -52 -274t-141.5 -222t-215.5 -147t-269 -54q-150 0 -279 53t-219.5 145t-142 219.5t-51.5 272.5zM160 657q0 -170 79 -311.5t220 -224t315 -82.5q169 0 305.5 81t212.5 221 t76 310q0 176 -77 318t-214 222.5t-307 80.5q-171 0 -311 -80t-219.5 -221t-79.5 -314zM393 623q0 220 119 339t305 119q64 0 129 -11.5t94 -25.5q0 -109 -18 -217h-35l-45 152q-85 33 -164 33q-134 0 -205 -92t-71 -236q0 -99 28.5 -172.5t75.5 -113t99 -58t108 -18.5 q96 0 231 71l27 -35q-140 -133 -315 -133q-158 0 -260.5 112.5t-102.5 285.5z" />
<glyph unicode="&#xaa;" horiz-adv-x="628" d="M33 731q0 81 59 111q90 48 311 65v51q0 78 -20 107q-26 37 -117 37q-82 0 -182 -23l-14 39q44 26 115.5 48t138.5 22q62 0 95 -14t58 -46q29 -39 29 -112q0 -25 -1 -120t-1 -146q0 -72 4 -97l104 -14v-27q-70 -39 -182 -55l-12 8l-12 72q-33 -36 -85 -58t-102 -22 q-48 0 -85.5 16t-58.5 42.5t-31.5 56t-10.5 59.5zM139 745q0 -46 31 -79t82 -33q86 0 151 35v178q-60 0 -130 -9t-97 -20q-37 -18 -37 -72z" />
<glyph unicode="&#xab;" horiz-adv-x="862" d="M51 489v31l389 344l29 -24l-256 -332l264 -348l-31 -29zM379 489v31l391 344l29 -24l-256 -332l264 -348l-31 -29z" />
<glyph unicode="&#xac;" horiz-adv-x="1228" d="M139 547v100h914v-506h-103v406h-811z" />
<glyph unicode="&#xad;" horiz-adv-x="591" d="M61 446v127h471v-127h-471z" />
<glyph unicode="&#xae;" horiz-adv-x="1529" d="M80 659q0 188 91 345t250.5 248t352.5 91q192 0 347.5 -90.5t242 -245t86.5 -341.5q0 -145 -52 -274t-141.5 -222t-215.5 -147t-269 -54q-150 0 -279 53t-219.5 145t-142 219.5t-51.5 272.5zM160 657q0 -170 79 -311.5t220 -224t315 -82.5q169 0 305.5 81t212.5 221 t76 310q0 176 -77 318t-214 222.5t-307 80.5q-171 0 -311 -80t-219.5 -221t-79.5 -314zM444 268v27l107 39v653l-107 41v27q41 -2 263 -2q193 0 273.5 -42.5t80.5 -164.5q0 -153 -180 -201q131 -214 270 -381l-33 -33q-32 13 -78.5 47.5t-74.5 63.5q-64 60 -209 289h-4 q-59 0 -90 4v-301l129 -39v-27q-102 4 -181 4q-80 0 -166 -4zM662 682q27 -4 75 -4q201 0 201 168q0 82 -46 120t-144 38q-42 0 -86 -3v-319z" />
<glyph unicode="&#xaf;" horiz-adv-x="565" d="M41 1139v110h483v-110h-483z" />
<glyph unicode="&#xb0;" horiz-adv-x="563" d="M47 1143q0 101 70.5 165t167.5 64q104 0 167.5 -60.5t63.5 -168.5q0 -106 -68 -170t-165 -64q-102 0 -169 62.5t-67 171.5zM125 1143q0 -81 44.5 -125.5t115.5 -44.5q63 0 109 44.5t46 123.5t-42 123.5t-115 44.5q-67 0 -112.5 -44t-45.5 -122z" />
<glyph unicode="&#xb1;" horiz-adv-x="1181" d="M111 92v98h962v-98h-962zM111 741v101h430v422h104v-422h428v-101h-428v-417h-104v417h-430z" />
<glyph unicode="&#xb2;" horiz-adv-x="722" d="M39 840v22q245 212 342.5 331t97.5 220q0 84 -41.5 123t-113.5 39q-84 0 -142 -21l-35 -139h-30q-15 87 -15 160q36 20 106 36.5t134 16.5q256 0 256 -209q0 -52 -25 -106.5t-60.5 -99t-98 -100t-111.5 -93t-127 -94.5q183 6 379 6l47 119h35q0 -13 -12 -211h-586z" />
<glyph unicode="&#xb3;" horiz-adv-x="722" d="M90 1016l35 2l57 -129q59 -21 127 -21q81 0 129.5 45t48.5 134q0 81 -59.5 128.5t-185.5 47.5h-17v41h17q67 0 114 16t69.5 43.5t32 55.5t9.5 61q0 135 -143 135q-78 0 -127 -16l-31 -123h-33q-14 84 -14 143q29 19 97 34t116 15q122 0 187 -42t65 -146q0 -69 -50 -121.5 t-167 -71.5q241 -21 241 -196q0 -108 -82.5 -168t-216.5 -60q-131 0 -205 31q-14 52 -14 162z" />
<glyph unicode="&#xb4;" horiz-adv-x="569" d="M102 1108l228 365q30 -3 73 -27.5t64 -52.5l-317 -314z" />
<glyph unicode="&#xb5;" horiz-adv-x="1232" d="M96 846v37q138 62 277 86l14 -17q-6 -163 -6 -647q0 -122 39 -164q46 -55 158 -55q61 0 148 23.5t138 52.5v659l-162 25v37q134 64 285 82l17 -15q-9 -461 -9 -624q0 -112 6 -203l170 -25v-35q-53 -29 -131 -54.5t-137 -35.5l-20 15l-15 127q-66 -69 -153 -103.5 t-172 -34.5q-108 0 -185 68q7 -58 16.5 -218.5t10.5 -256.5q-46 -14 -135 -14v1263z" />
<glyph unicode="&#xb6;" horiz-adv-x="995" d="M127 670q0 230 148.5 365.5t406.5 135.5q-1 23 -7 55.5t-11.5 55t-15.5 61.5t-13 52q56 32 117 32q10 -207 10 -806v-267q0 -164 -14 -285t-52 -239t-107 -220t-175 -204l-84 86q116 86 197 214.5t116.5 252t38.5 244.5q-8 0 -23.5 -1t-23.5 -1q-232 0 -370 125.5 t-138 343.5z" />
<glyph unicode="&#xb7;" horiz-adv-x="417" d="M92 514q0 54 33.5 88.5t83.5 34.5q53 0 85 -33t32 -86q0 -52 -31.5 -86.5t-87.5 -34.5q-52 0 -83.5 33.5t-31.5 83.5z" />
<glyph unicode="&#xb8;" horiz-adv-x="565" d="M121 -479q110 41 156.5 78t46.5 88q0 47 -37 72t-117 46l80 205h61l-47 -123q84 -31 133 -69.5t49 -100.5q0 -92 -76.5 -152.5t-238.5 -90.5z" />
<glyph unicode="&#xb9;" horiz-adv-x="722" d="M184 1528l226 100h24q0 -13 -1 -77t-2 -228t-1 -420l113 -41v-24q-53 6 -170 6t-185 -6v24l129 41v610l-127 -16z" />
<glyph unicode="&#xba;" horiz-adv-x="671" d="M41 866q0 81 25 145t68 102t96 57.5t112 19.5q131 0 211 -80t80 -227q0 -153 -84 -238.5t-217 -85.5q-126 0 -208.5 78t-82.5 229zM160 877q0 -142 45 -205.5t131 -63.5q82 0 128 64t46 198q0 267 -174 267q-80 0 -128 -57.5t-48 -202.5z" />
<glyph unicode="&#xbb;" horiz-adv-x="862" d="M55 836l31 28l397 -358v-31l-391 -344l-29 25l256 331zM385 836l31 28l395 -358v-31l-389 -344l-29 25l256 331z" />
<glyph unicode="&#xbc;" horiz-adv-x="1511" d="M182 1200l226 100h24q0 -13 -1 -77t-2 -228t-1 -420l113 -40v-25q-53 6 -170 6t-185 -6v25l129 40v611l-127 -17zM424 -41l565 1380l60 -20l-564 -1380zM807 207v22l424 557h57q-2 -41 -2 -503h129v-76h-129v-144l113 -40v-25q-67 6 -172 6q-119 0 -172 -6v25l119 40v144 h-367zM911 283h263q0 260 4 354z" />
<glyph unicode="&#xbd;" horiz-adv-x="1511" d="M166 1200l225 100h25q0 -13 -1 -77t-2 -228t-1 -420l112 -40v-25q-53 6 -170 6q-116 0 -184 -6v25l129 40v611l-127 -17zM395 -41l566 1380l59 -20l-563 -1380zM848 0v23q246 212 343 330.5t97 219.5q0 84 -41.5 123t-113.5 39q-86 0 -142 -20l-35 -140h-30 q-15 88 -15 160q36 20 106 36.5t134 16.5q256 0 256 -208q0 -52 -25 -106.5t-60.5 -99.5t-97.5 -100.5t-111.5 -93.5t-127.5 -94q183 6 379 6l47 119h35q0 -13 -12 -211h-586z" />
<glyph unicode="&#xbe;" horiz-adv-x="1511" d="M147 688l37 2l58 -129q56 -20 125 -20q83 0 130.5 44.5t47.5 133.5q0 81 -59.5 128.5t-186.5 47.5h-16v41h16q67 0 114 16t69.5 43.5t32 55.5t9.5 61q0 135 -141 135q-77 0 -129 -16l-31 -123h-30q-15 90 -15 143q29 19 96.5 34t114.5 15q122 0 188 -42t66 -146 q0 -69 -50.5 -121t-168.5 -71q74 -6 125 -26t75 -50t33 -58.5t9 -62.5q0 -108 -81.5 -167.5t-215.5 -59.5q-135 0 -207 30q-15 56 -15 162zM514 -41l565 1380l60 -20l-564 -1380zM836 207v22l424 557h57q-2 -41 -2 -503h129v-76h-129v-144l112 -40v-25q-67 6 -172 6 q-119 0 -172 -6v25l119 40v144h-366zM940 283h262q0 260 4 354z" />
<glyph unicode="&#xbf;" horiz-adv-x="851" d="M78 -127q0 50 12 94.5t30.5 79.5t51.5 69t63.5 58.5t78 52.5t84 46.5t91.5 45.5l25 218h55l31 -267q-76 -34 -126 -60t-102 -62t-81.5 -72t-48.5 -85.5t-19 -107.5q0 -99 67 -164t175 -65q127 0 215 29l57 223h45q21 -173 21 -250q-58 -34 -160.5 -61t-202.5 -27 q-170 0 -266 85t-96 220zM420 848q0 52 30.5 84.5t86.5 32.5q52 0 83 -32.5t31 -84.5q0 -54 -32 -88.5t-82 -34.5q-53 0 -85 34t-32 89z" />
<glyph unicode="&#xc0;" horiz-adv-x="1368" d="M8 -2v37l158 65l502 1262h71l463 -1262l156 -65v-37q-144 8 -258 8q-152 0 -262 -8v37l202 65l-141 410h-471l-152 -410l195 -65v-37q-110 8 -252 8q-67 0 -211 -8zM416 1692q10 30 46 64t73 40l315 -313l-39 -37zM457 584h420q-146 395 -209 583q-39 -130 -211 -583z " />
<glyph unicode="&#xc1;" horiz-adv-x="1368" d="M8 -2v37l158 65l502 1262h71l463 -1262l156 -65v-37q-144 8 -258 8q-152 0 -262 -8v37l202 65l-141 410h-471l-152 -410l195 -65v-37q-110 8 -252 8q-67 0 -211 -8zM457 584h420q-146 395 -209 583q-39 -130 -211 -583zM545 1481l315 313q36 -6 72 -38.5t47 -65.5 l-395 -246z" />
<glyph unicode="&#xc2;" horiz-adv-x="1368" d="M8 -2v37l158 65l502 1262h71l463 -1262l156 -65v-37q-144 8 -258 8q-152 0 -262 -8v37l202 65l-141 410h-471l-152 -410l195 -65v-37q-110 8 -252 8q-67 0 -211 -8zM420 1456l225 275q24 14 62 14q32 0 53 -14l221 -279l-41 -31l-244 191l-237 -191zM457 584h420 q-146 395 -209 583q-39 -130 -211 -583z" />
<glyph unicode="&#xc3;" horiz-adv-x="1368" d="M8 -2v37l158 65l502 1262h71l463 -1262l156 -65v-37q-144 8 -258 8q-152 0 -262 -8v37l202 65l-141 410h-471l-152 -410l195 -65v-37q-110 8 -252 8q-67 0 -211 -8zM418 1470q25 82 69 135.5t99 53.5q32 0 96 -23l70 -24q61 -27 94 -27q51 0 100 92l43 -12 q-36 -109 -72 -150.5t-81 -41.5q-46 0 -115 28l-68 27q-50 20 -84 20q-56 0 -108 -94zM457 584h420q-146 395 -209 583q-39 -130 -211 -583z" />
<glyph unicode="&#xc4;" horiz-adv-x="1368" d="M8 -2v37l158 65l502 1262h71l463 -1262l156 -65v-37q-144 8 -258 8q-152 0 -262 -8v37l202 65l-141 410h-471l-152 -410l195 -65v-37q-110 8 -252 8q-67 0 -211 -8zM446 1550q0 39 24.5 65.5t66.5 26.5t66 -26.5t24 -65.5q0 -40 -24.5 -67t-67.5 -27q-39 0 -64 27t-25 67 zM457 584h420q-146 395 -209 583q-39 -130 -211 -583zM762 1550q0 39 24 65.5t68 26.5q41 0 64.5 -26.5t23.5 -65.5q0 -40 -24.5 -67t-65.5 -27t-65.5 26.5t-24.5 67.5z" />
<glyph unicode="&#xc5;" horiz-adv-x="1368" d="M8 -2v37l158 65l502 1262h71l463 -1262l156 -65v-37q-144 8 -258 8q-152 0 -262 -8v37l202 65l-141 410h-471l-152 -410l195 -65v-37q-110 8 -252 8q-67 0 -211 -8zM457 584h420q-146 395 -209 583q-39 -130 -211 -583zM535 1575q0 74 49 123t116 49q74 0 120 -46 t46 -122q0 -75 -48.5 -122.5t-119.5 -47.5q-70 0 -116.5 45t-46.5 121zM602 1579q0 -51 27 -80t69 -29q45 0 73 28t28 81q0 52 -29 79.5t-72 27.5q-40 0 -68 -28t-28 -79z" />
<glyph unicode="&#xc6;" horiz-adv-x="2017" d="M6 -2v37l174 65l799 1153l-207 56v39q348 -2 1073 -2q0 -144 -20 -295h-47l-56 215q-213 8 -471 8v-549q233 4 328 12l72 174h43q-6 -83 -6 -217q0 -101 6 -209h-41l-74 164q-114 8 -328 8v-577q110 -8 226 -8q160 0 315 20l88 230h47q-3 -172 -20 -322h-979v37l178 63 v430h-514l-283 -430l195 -65v-37q-110 8 -266 8q-88 0 -232 -8zM643 604h463v649h-41q-122 -209 -422 -649z" />
<glyph unicode="&#xc7;" horiz-adv-x="1255" d="M102 623q0 152 35 277.5t96.5 213t148 147t188 87.5t216.5 28q236 0 355 -61q0 -102 -25 -291h-45l-55 184q-58 31 -152 49.5t-178 18.5q-96 0 -171.5 -33.5t-124 -88.5t-80.5 -131t-45 -155t-13 -166q0 -129 28.5 -234t76 -174.5t112 -116t134 -67t145.5 -20.5 q191 0 403 135l35 -47q-221 -208 -469 -211l-29 -84q84 -33 133 -73t49 -105q0 -194 -319 -252l-12 47q112 42 159 80.5t47 93.5q0 49 -37.5 75.5t-117.5 47.5l65 172q-166 13 -292 100t-193.5 230.5t-67.5 323.5z" />
<glyph unicode="&#xc8;" horiz-adv-x="1189" d="M78 -2v39l178 63v1145l-178 64v39q303 -2 940 -2q0 -136 -21 -295h-45l-55 215q-213 8 -498 8v-549q260 4 355 12l71 174h43q-6 -83 -6 -217q0 -101 6 -209h-41l-73 164q-114 8 -355 8v-577q114 -8 252 -8q76 0 178.5 7.5t137.5 12.5l88 230h47q-3 -161 -21 -322 q-724 0 -1003 -2zM291 1690q10 30 46 64t73 40l315 -313l-39 -37z" />
<glyph unicode="&#xc9;" horiz-adv-x="1189" d="M78 -2v39l178 63v1145l-178 64v39q303 -2 940 -2q0 -136 -21 -295h-45l-55 215q-213 8 -498 8v-549q260 4 355 12l71 174h43q-6 -83 -6 -217q0 -101 6 -209h-41l-73 164q-114 8 -355 8v-577q114 -8 252 -8q76 0 178.5 7.5t137.5 12.5l88 230h47q-3 -161 -21 -322 q-724 0 -1003 -2zM406 1481l315 313q36 -6 72 -38.5t47 -65.5l-396 -246z" />
<glyph unicode="&#xca;" horiz-adv-x="1189" d="M78 -2v39l178 63v1145l-178 64v39q303 -2 940 -2q0 -136 -21 -295h-45l-55 215q-213 8 -498 8v-549q260 4 355 12l71 174h43q-6 -83 -6 -217q0 -101 6 -209h-41l-73 164q-114 8 -355 8v-577q114 -8 252 -8q76 0 178.5 7.5t137.5 12.5l88 230h47q-3 -161 -21 -322 q-724 0 -1003 -2zM319 1456l226 275q24 14 61 14q32 0 53 -14l222 -279l-41 -31l-244 191l-238 -191z" />
<glyph unicode="&#xcb;" horiz-adv-x="1189" d="M78 -2v39l178 63v1145l-178 64v39q303 -2 940 -2q0 -136 -21 -295h-45l-55 215q-213 8 -498 8v-549q260 4 355 12l71 174h43q-6 -83 -6 -217q0 -101 6 -209h-41l-73 164q-114 8 -355 8v-577q114 -8 252 -8q76 0 178.5 7.5t137.5 12.5l88 230h47q-3 -161 -21 -322 q-724 0 -1003 -2zM354 1552q0 39 24 66t66 27t66.5 -27t24.5 -66q0 -40 -25 -67t-68 -27q-39 0 -63.5 27t-24.5 67zM670 1552q0 39 24 66t68 27q41 0 64.5 -27t23.5 -66q0 -40 -24.5 -67t-65.5 -27t-65.5 26.5t-24.5 67.5z" />
<glyph unicode="&#xcc;" horiz-adv-x="655" d="M14 1690q10 30 46 64t73 40l316 -313l-39 -37zM78 -2v37l178 65v1145l-178 64v39q162 -9 244 -9q132 0 256 9v-39l-179 -64v-1145l179 -65v-37q-110 8 -256 8q-100 0 -244 -8z" />
<glyph unicode="&#xcd;" horiz-adv-x="655" d="M78 -2v37l178 65v1145l-178 64v39q162 -9 244 -9q132 0 256 9v-39l-179 -64v-1145l179 -65v-37q-110 8 -256 8q-100 0 -244 -8zM190 1481l316 313q36 -6 72 -38.5t47 -65.5l-396 -246z" />
<glyph unicode="&#xce;" horiz-adv-x="655" d="M47 1456l225 275q24 14 62 14q32 0 53 -14l221 -279l-41 -31l-243 191l-238 -191zM78 -2v37l178 65v1145l-178 64v39q162 -9 244 -9q132 0 256 9v-39l-179 -64v-1145l179 -65v-37q-110 8 -256 8q-100 0 -244 -8z" />
<glyph unicode="&#xcf;" horiz-adv-x="655" d="M76 1552q0 39 24 66t66 27t66 -27t24 -66q0 -40 -24.5 -67t-67.5 -27q-39 0 -63.5 27t-24.5 67zM78 -2v37l178 65v1145l-178 64v39q162 -9 244 -9q132 0 256 9v-39l-179 -64v-1145l179 -65v-37q-110 8 -256 8q-100 0 -244 -8zM391 1552q0 39 24 66t68 27q41 0 64.5 -27 t23.5 -66q0 -40 -24.5 -67t-65.5 -27t-65.5 26.5t-24.5 67.5z" />
<glyph unicode="&#xd0;" horiz-adv-x="1425" d="M66 655v74h190v514l-178 64v41q84 -2 252 -2q360 0 510 -27q229 -40 356 -201t127 -416q0 -344 -187.5 -525t-529.5 -181q-21 0 -137 3t-145 3q-174 0 -246 -4v37l178 65v555h-190zM399 96q128 -16 236 -16q258 0 391 158t133 446q0 209 -87 354.5t-261 196.5 q-128 37 -412 37v-543h396v-74h-396v-559z" />
<glyph unicode="&#xd1;" horiz-adv-x="1499" d="M68 1311v37q136 -7 170 -7q66 0 145 7q466 -643 595 -823.5t200 -286.5q-12 587 -17 1007l-184 64v39q162 -9 231 -9q104 0 228 9v-39l-168 -64q-3 -151 -8 -1274h-64q-784 1097 -858 1207q10 -393 20 -1078l185 -65v-37q-188 8 -236 8q-62 0 -147 -4l-84 -4v37l178 65 q2 175 4.5 470.5t4 470.5t1.5 204zM489 1470q25 82 69 135.5t99 53.5q33 0 97 -23l69 -24q61 -27 95 -27q51 0 100 92l43 -12q-36 -109 -72.5 -150.5t-81.5 -41.5t-114 28l-68 27q-50 20 -84 20q-57 0 -109 -94z" />
<glyph unicode="&#xd2;" horiz-adv-x="1478" d="M102 653q0 152 38.5 276.5t102 206t149 137t176 79.5t186.5 24q128 0 238.5 -41.5t197 -122.5t136.5 -214.5t50 -303.5q0 -146 -34.5 -267.5t-95 -205t-142.5 -141.5t-175 -84.5t-196 -26.5q-96 0 -184 22t-170.5 74t-143 129t-97 195t-36.5 264zM264 682 q0 -168 37.5 -294t104 -200t149.5 -109.5t182 -35.5q81 0 151 22.5t130 71.5t103 120.5t67 175.5t24 231q0 167 -36 292.5t-101 200t-147.5 110.5t-182.5 36q-71 0 -136 -18t-129 -63t-111 -113.5t-76 -178.5t-29 -248zM465 1690q10 30 46 64t73 40l315 -313l-39 -37z" />
<glyph unicode="&#xd3;" horiz-adv-x="1478" d="M102 653q0 152 38.5 276.5t102 206t149 137t176 79.5t186.5 24q128 0 238.5 -41.5t197 -122.5t136.5 -214.5t50 -303.5q0 -146 -34.5 -267.5t-95 -205t-142.5 -141.5t-175 -84.5t-196 -26.5q-96 0 -184 22t-170.5 74t-143 129t-97 195t-36.5 264zM264 682 q0 -168 37.5 -294t104 -200t149.5 -109.5t182 -35.5q81 0 151 22.5t130 71.5t103 120.5t67 175.5t24 231q0 167 -36 292.5t-101 200t-147.5 110.5t-182.5 36q-71 0 -136 -18t-129 -63t-111 -113.5t-76 -178.5t-29 -248zM592 1481l315 313q36 -6 72 -38.5t47 -65.5l-395 -246 z" />
<glyph unicode="&#xd4;" horiz-adv-x="1478" d="M102 653q0 152 38.5 276.5t102 206t149 137t176 79.5t186.5 24q128 0 238.5 -41.5t197 -122.5t136.5 -214.5t50 -303.5q0 -146 -34.5 -267.5t-95 -205t-142.5 -141.5t-175 -84.5t-196 -26.5q-96 0 -184 22t-170.5 74t-143 129t-97 195t-36.5 264zM264 682 q0 -168 37.5 -294t104 -200t149.5 -109.5t182 -35.5q81 0 151 22.5t130 71.5t103 120.5t67 175.5t24 231q0 167 -36 292.5t-101 200t-147.5 110.5t-182.5 36q-71 0 -136 -18t-129 -63t-111 -113.5t-76 -178.5t-29 -248zM465 1456l225 275q24 14 62 14q32 0 53 -14l221 -279 l-41 -31l-244 191l-237 -191z" />
<glyph unicode="&#xd5;" horiz-adv-x="1478" d="M102 653q0 152 38.5 276.5t102 206t149 137t176 79.5t186.5 24q128 0 238.5 -41.5t197 -122.5t136.5 -214.5t50 -303.5q0 -146 -34.5 -267.5t-95 -205t-142.5 -141.5t-175 -84.5t-196 -26.5q-96 0 -184 22t-170.5 74t-143 129t-97 195t-36.5 264zM264 682 q0 -168 37.5 -294t104 -200t149.5 -109.5t182 -35.5q81 0 151 22.5t130 71.5t103 120.5t67 175.5t24 231q0 167 -36 292.5t-101 200t-147.5 110.5t-182.5 36q-71 0 -136 -18t-129 -63t-111 -113.5t-76 -178.5t-29 -248zM461 1470q25 82 69 135.5t99 53.5q32 0 96 -23l70 -24 q61 -27 94 -27q51 0 100 92l43 -12q-36 -109 -72 -150.5t-81 -41.5q-46 0 -115 28l-68 27q-50 20 -84 20q-56 0 -108 -94z" />
<glyph unicode="&#xd6;" horiz-adv-x="1478" d="M102 653q0 152 38.5 276.5t102 206t149 137t176 79.5t186.5 24q128 0 238.5 -41.5t197 -122.5t136.5 -214.5t50 -303.5q0 -146 -34.5 -267.5t-95 -205t-142.5 -141.5t-175 -84.5t-196 -26.5q-96 0 -184 22t-170.5 74t-143 129t-97 195t-36.5 264zM264 682 q0 -168 37.5 -294t104 -200t149.5 -109.5t182 -35.5q81 0 151 22.5t130 71.5t103 120.5t67 175.5t24 231q0 167 -36 292.5t-101 200t-147.5 110.5t-182.5 36q-71 0 -136 -18t-129 -63t-111 -113.5t-76 -178.5t-29 -248zM449 1552q0 39 24 66t66 27t66 -27t24 -66 q0 -40 -24.5 -67t-67.5 -27q-39 0 -63.5 27t-24.5 67zM764 1552q0 39 24 66t68 27q41 0 64.5 -27t23.5 -66q0 -40 -24.5 -67t-65.5 -27t-65.5 26.5t-24.5 67.5z" />
<glyph unicode="&#xd7;" horiz-adv-x="1228" d="M211 934l74 76l331 -330l326 330l68 -68l-326 -334l336 -329l-74 -74l-336 330l-327 -332l-68 65l330 334z" />
<glyph unicode="&#xd8;" horiz-adv-x="1478" d="M102 653q0 152 38.5 276.5t102 206t149 137t176 79.5t186.5 24q212 0 368 -108l123 162l66 -46l-127 -167q192 -182 192 -523q0 -146 -34.5 -267.5t-95 -205t-142.5 -141.5t-175 -84.5t-196 -26.5q-236 0 -401 129l-129 -170l-62 45l133 177q-172 180 -172 503zM264 682 q0 -268 92 -424l699 920q-119 125 -310 125q-71 0 -136 -18t-129 -63t-111 -113.5t-76 -178.5t-29 -248zM403 193q124 -150 334 -150q81 0 151 22.5t130 71.5t103 120.5t67 175.5t24 231q0 288 -108 450z" />
<glyph unicode="&#xd9;" horiz-adv-x="1503" d="M66 1309v39q162 -9 235 -9q142 0 266 9v-39l-178 -64v-647q0 -249 37 -350q72 -185 358 -185q119 0 210.5 42.5t129.5 107.5q60 113 60 430q0 302 -10 602l-185 64v39q162 -9 238 -9q99 0 223 9v-39l-166 -64q-2 -213 -10 -649q-3 -192 -25 -297.5t-80 -173.5 q-135 -156 -421 -156q-156 0 -270.5 50t-166.5 131q-40 63 -54.5 155t-14.5 277v663zM461 1690q10 30 46 64t73 40l315 -313l-39 -37z" />
<glyph unicode="&#xda;" horiz-adv-x="1503" d="M66 1309v39q162 -9 235 -9q142 0 266 9v-39l-178 -64v-647q0 -249 37 -350q72 -185 358 -185q119 0 210.5 42.5t129.5 107.5q60 113 60 430q0 302 -10 602l-185 64v39q162 -9 238 -9q99 0 223 9v-39l-166 -64q-2 -213 -10 -649q-3 -192 -25 -297.5t-80 -173.5 q-135 -156 -421 -156q-156 0 -270.5 50t-166.5 131q-40 63 -54.5 155t-14.5 277v663zM641 1481l315 313q36 -6 72 -38.5t47 -65.5l-395 -246z" />
<glyph unicode="&#xdb;" horiz-adv-x="1503" d="M66 1309v39q162 -9 235 -9q142 0 266 9v-39l-178 -64v-647q0 -249 37 -350q72 -185 358 -185q119 0 210.5 42.5t129.5 107.5q60 113 60 430q0 302 -10 602l-185 64v39q162 -9 238 -9q99 0 223 9v-39l-166 -64q-2 -213 -10 -649q-3 -192 -25 -297.5t-80 -173.5 q-135 -156 -421 -156q-156 0 -270.5 50t-166.5 131q-40 63 -54.5 155t-14.5 277v663zM500 1456l225 275q24 14 61 14q33 0 54 -14l221 -279l-41 -31l-244 191l-237 -191z" />
<glyph unicode="&#xdc;" horiz-adv-x="1503" d="M66 1309v39q162 -9 235 -9q142 0 266 9v-39l-178 -64v-647q0 -249 37 -350q72 -185 358 -185q119 0 210.5 42.5t129.5 107.5q60 113 60 430q0 302 -10 602l-185 64v39q162 -9 238 -9q99 0 223 9v-39l-166 -64q-2 -213 -10 -649q-3 -192 -25 -297.5t-80 -173.5 q-135 -156 -421 -156q-156 0 -270.5 50t-166.5 131q-40 63 -54.5 155t-14.5 277v663zM469 1552q0 39 24 66t66 27t66 -27t24 -66q0 -40 -24.5 -67t-67.5 -27q-39 0 -63.5 27t-24.5 67zM784 1552q0 39 24.5 66t68.5 27q41 0 64.5 -27t23.5 -66q0 -40 -25 -67t-66 -27 t-65.5 26.5t-24.5 67.5z" />
<glyph unicode="&#xdd;" horiz-adv-x="1349" d="M10 1313v35q132 -9 254 -9q162 3 258 11v-35l-184 -70q348 -551 373 -594q15 26 59.5 98.5t121 200t175.5 295.5l-182 68v35q91 -7 223 -7q101 0 233 9v-35l-151 -70l-442 -670v-475l176 -65v-37q-110 8 -254 8q-100 0 -244 -8v37l176 65v475l-440 670zM590 1481l315 313 q36 -6 72 -38.5t47 -65.5l-395 -246z" />
<glyph unicode="&#xde;" horiz-adv-x="1196" d="M78 -2v37l178 65v1145l-178 64v39q162 -9 244 -9q132 0 256 9v-39l-179 -64v-178q62 4 97 4q122 0 210.5 -9t166 -33.5t125 -65.5t74 -106t26.5 -155q0 -110 -40.5 -189.5t-115 -124.5t-167.5 -66t-210 -21t-166 6v-207l215 -65v-37q-160 4 -282 4q-182 0 -254 -4z M399 377q71 -6 136 -6q93 0 161.5 14t125.5 48.5t86.5 101t29.5 163.5q0 299 -399 299q-87 0 -140 -2v-618z" />
<glyph unicode="&#xdf;" horiz-adv-x="1153" d="M70 831v52l168 55v43q0 242 88 356q55 71 142.5 107.5t182.5 36.5q134 0 222 -68.5t88 -189.5q0 -99 -53.5 -175.5t-159.5 -156.5q-68 -53 -88.5 -79t-20.5 -56q0 -41 72 -99q33 -24 118 -78t127 -85q121 -91 121 -226q0 -134 -93.5 -213.5t-233.5 -79.5q-157 0 -283 95 l72 100q51 -46 117.5 -76.5t121.5 -30.5q84 0 128 40.5t44 113.5q0 99 -94 166q-32 24 -110.5 74.5t-112.5 74.5q-117 85 -117 179q0 54 31 98.5t129 132.5q72 61 113.5 124.5t41.5 150.5q0 91 -55 140.5t-133 49.5q-175 0 -229 -139q-16 -38 -26.5 -124t-10.5 -165v-524 q0 -243 4 -455q-18 0 -51 1t-43 1q-149 0 -215 -4v35l174 65v733h-176z" />
<glyph unicode="&#xe0;" horiz-adv-x="1032" d="M92 246q0 58 20.5 99t77.5 69q144 72 492 106v86q0 133 -29 178q-48 66 -200 66q-47 0 -131 -12.5t-154 -30.5l-16 47q66 42 171.5 76.5t204.5 34.5q171 0 240 -93q47 -61 47 -174q0 -126 -4 -434q0 -71 4 -149l170 -19v-35q-97 -56 -262 -88l-18 15l-17 116 q-56 -58 -142.5 -94.5t-162.5 -36.5q-75 0 -133 26t-91.5 67.5t-50 87.5t-16.5 92zM231 266q0 -81 50.5 -133.5t136.5 -52.5q131 0 264 70v276q-105 -1 -223 -16t-164 -31q-64 -23 -64 -113zM240 1393q20 27 62 53t75 27l227 -365l-47 -29z" />
<glyph unicode="&#xe1;" horiz-adv-x="1032" d="M92 246q0 58 20.5 99t77.5 69q144 72 492 106v86q0 133 -29 178q-48 66 -200 66q-47 0 -131 -12.5t-154 -30.5l-16 47q66 42 171.5 76.5t204.5 34.5q171 0 240 -93q47 -61 47 -174q0 -126 -4 -434q0 -71 4 -149l170 -19v-35q-97 -56 -262 -88l-18 15l-17 116 q-56 -58 -142.5 -94.5t-162.5 -36.5q-75 0 -133 26t-91.5 67.5t-50 87.5t-16.5 92zM231 266q0 -81 50.5 -133.5t136.5 -52.5q131 0 264 70v276q-105 -1 -223 -16t-164 -31q-64 -23 -64 -113zM377 1108l227 365q30 -3 73 -27.5t64 -52.5l-317 -314z" />
<glyph unicode="&#xe2;" horiz-adv-x="1032" d="M92 246q0 58 20.5 99t77.5 69q144 72 492 106v86q0 133 -29 178q-48 66 -200 66q-47 0 -131 -12.5t-154 -30.5l-16 47q66 42 171.5 76.5t204.5 34.5q171 0 240 -93q47 -61 47 -174q0 -126 -4 -434q0 -71 4 -149l170 -19v-35q-97 -56 -262 -88l-18 15l-17 116 q-56 -58 -142.5 -94.5t-162.5 -36.5q-75 0 -133 26t-91.5 67.5t-50 87.5t-16.5 92zM231 266q0 -81 50.5 -133.5t136.5 -52.5q131 0 264 70v276q-105 -1 -223 -16t-164 -31q-64 -23 -64 -113zM240 1075l202 330q24 14 62 14q25 0 53 -14l199 -334l-41 -24l-221 237l-215 -237 z" />
<glyph unicode="&#xe3;" horiz-adv-x="1032" d="M92 246q0 58 20.5 99t77.5 69q144 72 492 106v86q0 133 -29 178q-48 66 -200 66q-47 0 -131 -12.5t-154 -30.5l-16 47q66 42 171.5 76.5t204.5 34.5q171 0 240 -93q47 -61 47 -174q0 -126 -4 -434q0 -71 4 -149l170 -19v-35q-97 -56 -262 -88l-18 15l-17 116 q-56 -58 -142.5 -94.5t-162.5 -36.5q-75 0 -133 26t-91.5 67.5t-50 87.5t-16.5 92zM231 266q0 -81 50.5 -133.5t136.5 -52.5q131 0 264 70v276q-105 -1 -223 -16t-164 -31q-64 -23 -64 -113zM231 1120q60 199 160 199q43 0 107 -27l51 -22q60 -27 84 -27q30 0 54 22.5 t52 77.5l43 -14q-38 -113 -70.5 -158t-74.5 -45q-47 0 -125 35l-45 21q-55 22 -84 22q-32 0 -56 -22t-55 -76z" />
<glyph unicode="&#xe4;" horiz-adv-x="1032" d="M92 246q0 58 20.5 99t77.5 69q144 72 492 106v86q0 133 -29 178q-48 66 -200 66q-47 0 -131 -12.5t-154 -30.5l-16 47q66 42 171.5 76.5t204.5 34.5q171 0 240 -93q47 -61 47 -174q0 -126 -4 -434q0 -71 4 -149l170 -19v-35q-97 -56 -262 -88l-18 15l-17 116 q-56 -58 -142.5 -94.5t-162.5 -36.5q-75 0 -133 26t-91.5 67.5t-50 87.5t-16.5 92zM231 266q0 -81 50.5 -133.5t136.5 -52.5q131 0 264 70v276q-105 -1 -223 -16t-164 -31q-64 -23 -64 -113zM252 1237q0 39 24 65.5t66 26.5t66 -26.5t24 -65.5t-25 -66.5t-67 -27.5 q-39 0 -63.5 27.5t-24.5 66.5zM547 1237q0 39 24 65.5t68 26.5q42 0 65 -26.5t23 -65.5t-24 -66.5t-66 -27.5q-40 0 -65 27.5t-25 66.5z" />
<glyph unicode="&#xe5;" horiz-adv-x="1032" d="M92 246q0 58 20.5 99t77.5 69q144 72 492 106v86q0 133 -29 178q-48 66 -200 66q-47 0 -131 -12.5t-154 -30.5l-16 47q66 42 171.5 76.5t204.5 34.5q171 0 240 -93q47 -61 47 -174q0 -126 -4 -434q0 -71 4 -149l170 -19v-35q-97 -56 -262 -88l-18 15l-17 116 q-56 -58 -142.5 -94.5t-162.5 -36.5q-75 0 -133 26t-91.5 67.5t-50 87.5t-16.5 92zM231 266q0 -81 50.5 -133.5t136.5 -52.5q131 0 264 70v276q-105 -1 -223 -16t-164 -31q-64 -23 -64 -113zM332 1235q0 77 52.5 127.5t123.5 50.5q79 0 127.5 -47.5t48.5 -126.5 q0 -77 -51.5 -125.5t-126.5 -48.5q-74 0 -124 46.5t-50 123.5zM399 1239q0 -53 30 -84t77 -31q49 0 78.5 30t29.5 85q0 57 -30 85t-78 28q-44 0 -75.5 -29t-31.5 -84z" />
<glyph unicode="&#xe6;" horiz-adv-x="1558" d="M90 240q0 60 20.5 103t77.5 71q139 70 488 104v88q0 141 -29 180q-41 64 -196 64q-46 0 -129.5 -12.5t-153.5 -30.5l-18 47q69 43 171.5 77t202.5 34q104 0 170.5 -36.5t89.5 -123.5q59 81 150.5 121.5t191.5 40.5q161 0 255 -96.5t94 -258.5q0 -22 -7 -45 q-58 -51 -223 -51h-438q1 -97 24 -173t58.5 -122t84.5 -75.5t96.5 -40.5t98.5 -11q76 0 140 19.5t155 66.5l29 -43q-73 -73 -171.5 -118.5t-211.5 -45.5q-216 0 -342 158q-68 -65 -173.5 -111.5t-209.5 -46.5q-74 0 -133 25t-93 65t-51.5 85.5t-17.5 91.5zM229 260 q0 -80 51.5 -130t135.5 -50q163 0 315 106q-54 99 -57 246q-113 -6 -225 -22t-154 -33q-66 -20 -66 -117zM809 573l530 31q-2 138 -57 209.5t-176 71.5q-71 0 -129 -28.5t-93 -75t-54 -100t-21 -108.5z" />
<glyph unicode="&#xe7;" horiz-adv-x="909" d="M86 434q0 128 40.5 231t109.5 168t155.5 99.5t181.5 34.5q144 0 256 -52l-67 -135q-141 80 -283 80q-126 0 -196 -94t-70 -248q0 -113 33 -198.5t86.5 -132.5t113.5 -70t123 -23q106 0 267 82l30 -41q-151 -151 -336 -162l-32 -86q84 -31 133 -69.5t49 -100.5 q0 -92 -76.5 -152.5t-238.5 -90.5l-11 47q110 41 156.5 78t46.5 88q0 47 -37 72t-117 46l66 170q-168 12 -275.5 140t-107.5 319z" />
<glyph unicode="&#xe8;" horiz-adv-x="966" d="M86 440q0 129 37.5 232t101.5 166t143 96t167 33q161 0 251.5 -86.5t90.5 -243.5q0 -47 -7 -70q-58 -51 -223 -51h-436q1 -97 24.5 -173t60 -122t86 -75.5t97.5 -40.5t99 -11q77 0 139.5 19t154.5 67l31 -43q-171 -164 -385 -164q-192 0 -312 127.5t-120 339.5zM213 573 l528 33q2 8 2 33q0 123 -54 185.5t-175 62.5q-71 0 -129.5 -28.5t-94 -74.5t-55.5 -100.5t-22 -110.5zM256 1393q20 27 62 53t75 27l228 -365l-48 -29z" />
<glyph unicode="&#xe9;" horiz-adv-x="966" d="M86 440q0 129 37.5 232t101.5 166t143 96t167 33q161 0 251.5 -86.5t90.5 -243.5q0 -47 -7 -70q-58 -51 -223 -51h-436q1 -97 24.5 -173t60 -122t86 -75.5t97.5 -40.5t99 -11q77 0 139.5 19t154.5 67l31 -43q-171 -164 -385 -164q-192 0 -312 127.5t-120 339.5zM213 573 l528 33q2 8 2 33q0 123 -54 185.5t-175 62.5q-71 0 -129.5 -28.5t-94 -74.5t-55.5 -100.5t-22 -110.5zM408 1108l227 365q30 -3 73 -27.5t64 -52.5l-317 -314z" />
<glyph unicode="&#xea;" horiz-adv-x="966" d="M86 440q0 129 37.5 232t101.5 166t143 96t167 33q161 0 251.5 -86.5t90.5 -243.5q0 -47 -7 -70q-58 -51 -223 -51h-436q1 -97 24.5 -173t60 -122t86 -75.5t97.5 -40.5t99 -11q77 0 139.5 19t154.5 67l31 -43q-171 -164 -385 -164q-192 0 -312 127.5t-120 339.5zM213 573 l528 33q2 8 2 33q0 123 -54 185.5t-175 62.5q-71 0 -129.5 -28.5t-94 -74.5t-55.5 -100.5t-22 -110.5zM246 1075l203 330q24 14 61 14q25 0 53 -14l199 -334l-41 -24l-221 237l-215 -237z" />
<glyph unicode="&#xeb;" horiz-adv-x="966" d="M86 440q0 129 37.5 232t101.5 166t143 96t167 33q161 0 251.5 -86.5t90.5 -243.5q0 -47 -7 -70q-58 -51 -223 -51h-436q1 -97 24.5 -173t60 -122t86 -75.5t97.5 -40.5t99 -11q77 0 139.5 19t154.5 67l31 -43q-171 -164 -385 -164q-192 0 -312 127.5t-120 339.5zM213 573 l528 33q2 8 2 33q0 123 -54 185.5t-175 62.5q-71 0 -129.5 -28.5t-94 -74.5t-55.5 -100.5t-22 -110.5zM268 1237q0 39 24 65.5t66 26.5t66.5 -26.5t24.5 -65.5t-25.5 -66.5t-67.5 -27.5q-39 0 -63.5 27.5t-24.5 66.5zM563 1237q0 39 24 65.5t68 26.5q42 0 65 -26.5t23 -65.5 t-24 -66.5t-66 -27.5q-40 0 -65 27.5t-25 66.5z" />
<glyph unicode="&#xec;" horiz-adv-x="587" d="M31 1393q20 27 62 53t75 27l227 -365l-47 -29zM61 -2v35l175 65v654l-144 65v31q143 88 268 121l17 -17q-10 -144 -10 -415v-439l178 -63v-37q-110 8 -256 8q-84 0 -228 -8z" />
<glyph unicode="&#xed;" horiz-adv-x="587" d="M61 -2v35l175 65v654l-144 65v31q143 88 268 121l17 -17q-10 -144 -10 -415v-439l178 -63v-37q-110 8 -256 8q-84 0 -228 -8zM158 1108l227 365q30 -3 73 -27.5t64 -52.5l-317 -314z" />
<glyph unicode="&#xee;" horiz-adv-x="587" d="M35 1075l203 330q24 14 61 14q25 0 53 -14l199 -334l-41 -24l-221 237l-215 -237zM61 -2v35l175 65v654l-144 65v31q143 88 268 121l17 -17q-10 -144 -10 -415v-439l178 -63v-37q-110 8 -256 8q-84 0 -228 -8z" />
<glyph unicode="&#xef;" horiz-adv-x="587" d="M45 1237q0 39 24 65.5t66 26.5t66 -26.5t24 -65.5t-25 -66.5t-67 -27.5q-39 0 -63.5 27.5t-24.5 66.5zM61 -2v35l175 65v654l-144 65v31q143 88 268 121l17 -17q-10 -144 -10 -415v-439l178 -63v-37q-110 8 -256 8q-84 0 -228 -8zM340 1237q0 39 24 65.5t68 26.5 q42 0 65 -26.5t23 -65.5t-24 -66.5t-66 -27.5q-40 0 -65 27.5t-25 66.5z" />
<glyph unicode="&#xf0;" horiz-adv-x="1087" d="M86 457q0 102 27 187t72 143t105 98.5t125.5 59t133.5 18.5q175 0 254 -97q-25 73 -70 152t-96 139l-201 -123l-35 60l193 114q-60 72 -141.5 135.5t-161.5 104.5l28 57q207 -73 375 -233l162 100l35 -59l-150 -90q258 -296 258 -740q0 -242 -127.5 -376t-330.5 -134 q-91 0 -171 29t-144.5 85.5t-102 152t-37.5 217.5zM240 471q0 -218 80 -322t225 -104q142 0 222.5 104.5t80.5 311.5q0 426 -303 426q-64 0 -116.5 -22t-96 -69t-68 -129.5t-24.5 -195.5z" />
<glyph unicode="&#xf1;" horiz-adv-x="1208" d="M61 -2v35l175 65v654l-144 65v31q131 81 262 121l17 -17l-11 -131q75 68 183 106t194 38q96 0 152.5 -35t79.5 -107q16 -49 16 -209v-516l176 -63v-37q-101 8 -252 8q-87 0 -227 -8v35l170 65v545q0 114 -31 150q-49 55 -164 55q-66 0 -155 -21t-135 -49v-680l174 -63 v-37q-110 8 -252 8q-84 0 -228 -8zM322 1120q60 199 159 199q43 0 107 -27l51 -22q60 -27 84 -27q30 0 54 22.5t52 77.5l43 -14q-38 -113 -70.5 -158t-74.5 -45q-47 0 -125 35l-45 21q-55 22 -84 22q-32 0 -56 -22t-55 -76z" />
<glyph unicode="&#xf2;" horiz-adv-x="1087" d="M86 455q0 102 27 187.5t72.5 144.5t106 100.5t126.5 60.5t135 19q199 0 322.5 -129t123.5 -359q0 -122 -34.5 -219t-96.5 -159t-145 -95t-182 -33q-91 0 -171 29t-144.5 85.5t-102 151t-37.5 216.5zM240 471q0 -218 80 -322t225 -104q142 0 222.5 104.5t80.5 311.5 q0 432 -303 432q-65 0 -117.5 -22t-96 -69t-67.5 -131t-24 -200zM272 1393q19 27 62 53t76 27l227 -365l-47 -29z" />
<glyph unicode="&#xf3;" horiz-adv-x="1087" d="M86 455q0 102 27 187.5t72.5 144.5t106 100.5t126.5 60.5t135 19q199 0 322.5 -129t123.5 -359q0 -122 -34.5 -219t-96.5 -159t-145 -95t-182 -33q-91 0 -171 29t-144.5 85.5t-102 151t-37.5 216.5zM240 471q0 -218 80 -322t225 -104q142 0 222.5 104.5t80.5 311.5 q0 432 -303 432q-65 0 -117.5 -22t-96 -69t-67.5 -131t-24 -200zM428 1108l227 365q31 -3 74 -27.5t64 -52.5l-318 -314z" />
<glyph unicode="&#xf4;" horiz-adv-x="1087" d="M86 455q0 102 27 187.5t72.5 144.5t106 100.5t126.5 60.5t135 19q199 0 322.5 -129t123.5 -359q0 -122 -34.5 -219t-96.5 -159t-145 -95t-182 -33q-91 0 -171 29t-144.5 85.5t-102 151t-37.5 216.5zM240 471q0 -218 80 -322t225 -104q142 0 222.5 104.5t80.5 311.5 q0 432 -303 432q-65 0 -117.5 -22t-96 -69t-67.5 -131t-24 -200zM293 1075l203 330q24 14 61 14q25 0 53 -14l199 -334l-41 -24l-221 237l-215 -237z" />
<glyph unicode="&#xf5;" horiz-adv-x="1087" d="M86 455q0 102 27 187.5t72.5 144.5t106 100.5t126.5 60.5t135 19q199 0 322.5 -129t123.5 -359q0 -122 -34.5 -219t-96.5 -159t-145 -95t-182 -33q-91 0 -171 29t-144.5 85.5t-102 151t-37.5 216.5zM240 471q0 -218 80 -322t225 -104q142 0 222.5 104.5t80.5 311.5 q0 432 -303 432q-65 0 -117.5 -22t-96 -69t-67.5 -131t-24 -200zM266 1120q60 199 160 199q42 0 106 -27l52 -22q60 -27 84 -27q30 0 54 22.5t52 77.5l43 -14q-38 -113 -70.5 -158t-74.5 -45q-47 0 -125 35l-45 21q-55 22 -84 22q-32 0 -56 -22t-55 -76z" />
<glyph unicode="&#xf6;" horiz-adv-x="1087" d="M86 455q0 102 27 187.5t72.5 144.5t106 100.5t126.5 60.5t135 19q199 0 322.5 -129t123.5 -359q0 -122 -34.5 -219t-96.5 -159t-145 -95t-182 -33q-91 0 -171 29t-144.5 85.5t-102 151t-37.5 216.5zM240 471q0 -218 80 -322t225 -104q142 0 222.5 104.5t80.5 311.5 q0 432 -303 432q-65 0 -117.5 -22t-96 -69t-67.5 -131t-24 -200zM303 1237q0 39 24 65.5t66 26.5t66 -26.5t24 -65.5t-25 -66.5t-67 -27.5q-39 0 -63.5 27.5t-24.5 66.5zM598 1237q0 39 24 65.5t68 26.5q42 0 65 -26.5t23 -65.5t-24 -66.5t-66 -27.5q-40 0 -65 27.5 t-25 66.5z" />
<glyph unicode="&#xf7;" horiz-adv-x="1228" d="M158 553v96h913v-96h-913zM555 305q0 33 22.5 56.5t55.5 23.5t54.5 -24t21.5 -58q0 -32 -21.5 -55t-54.5 -23q-35 0 -56.5 23t-21.5 57zM555 897q0 33 22.5 57.5t55.5 24.5t54.5 -24t21.5 -60q0 -31 -21.5 -54.5t-54.5 -23.5q-34 0 -56 23.5t-22 56.5z" />
<glyph unicode="&#xf8;" horiz-adv-x="1087" d="M86 455q0 102 27 187.5t72.5 144.5t106 100.5t126.5 60.5t135 19q137 0 248 -68l102 139l62 -41l-105 -143q139 -133 139 -375q0 -122 -34.5 -219t-96.5 -159t-145 -95t-182 -33q-153 0 -269 76l-94 -131l-59 43l98 135q-131 128 -131 359zM240 471q0 -176 49 -274 l454 622q-77 74 -198 74q-65 0 -117.5 -22t-96 -69t-67.5 -131t-24 -200zM334 131q74 -86 211 -86q142 0 222.5 104.5t80.5 311.5q0 187 -60 295z" />
<glyph unicode="&#xf9;" horiz-adv-x="1198" d="M76 846v37q138 62 278 86l15 -17q-9 -195 -9 -647q0 -122 39 -164q46 -55 158 -55q61 0 148.5 23.5t138.5 52.5v659l-162 25v37q134 64 285 82l16 -15q-8 -410 -8 -624q0 -112 6 -203l170 -25v-35q-53 -29 -131 -54.5t-137 -35.5l-21 15l-14 129q-66 -68 -161.5 -105 t-186.5 -37q-194 0 -248 146q-23 70 -23 213v485zM348 1393q20 27 62 53t75 27l228 -365l-47 -29z" />
<glyph unicode="&#xfa;" horiz-adv-x="1198" d="M76 846v37q138 62 278 86l15 -17q-9 -195 -9 -647q0 -122 39 -164q46 -55 158 -55q61 0 148.5 23.5t138.5 52.5v659l-162 25v37q134 64 285 82l16 -15q-8 -410 -8 -624q0 -112 6 -203l170 -25v-35q-53 -29 -131 -54.5t-137 -35.5l-21 15l-14 129q-66 -68 -161.5 -105 t-186.5 -37q-194 0 -248 146q-23 70 -23 213v485zM502 1108l227 365q30 -3 73 -27.5t64 -52.5l-317 -314z" />
<glyph unicode="&#xfb;" horiz-adv-x="1198" d="M76 846v37q138 62 278 86l15 -17q-9 -195 -9 -647q0 -122 39 -164q46 -55 158 -55q61 0 148.5 23.5t138.5 52.5v659l-162 25v37q134 64 285 82l16 -15q-8 -410 -8 -624q0 -112 6 -203l170 -25v-35q-53 -29 -131 -54.5t-137 -35.5l-21 15l-14 129q-66 -68 -161.5 -105 t-186.5 -37q-194 0 -248 146q-23 70 -23 213v485zM348 1075l203 330q25 14 61 14q26 0 54 -14l198 -334l-41 -24l-221 237l-215 -237z" />
<glyph unicode="&#xfc;" horiz-adv-x="1198" d="M76 846v37q138 62 278 86l15 -17q-9 -195 -9 -647q0 -122 39 -164q46 -55 158 -55q61 0 148.5 23.5t138.5 52.5v659l-162 25v37q134 64 285 82l16 -15q-8 -410 -8 -624q0 -112 6 -203l170 -25v-35q-53 -29 -131 -54.5t-137 -35.5l-21 15l-14 129q-66 -68 -161.5 -105 t-186.5 -37q-194 0 -248 146q-23 70 -23 213v485zM371 1237q0 39 24 65.5t66 26.5t66 -26.5t24 -65.5t-25 -66.5t-67 -27.5q-39 0 -63.5 27.5t-24.5 66.5zM666 1237q0 39 24 65.5t68 26.5q42 0 65 -26.5t23 -65.5t-24 -66.5t-66 -27.5q-40 0 -65 27.5t-25 66.5z" />
<glyph unicode="&#xfd;" horiz-adv-x="1056" d="M10 905v39q117 -8 219 -8q133 0 234 8v-39l-178 -61q177 -441 268 -690l264 690l-176 61v39q104 -8 223 -8q66 0 183 8v-39l-127 -61l-316 -756q-97 -225 -205 -371q-92 -129 -227 -233l-74 96q125 89 209 182q122 133 178 254l-348 828zM457 1108l227 365 q30 -3 73 -27.5t64 -52.5l-317 -314z" />
<glyph unicode="&#xfe;" horiz-adv-x="1136" d="M23 -436l174 65v1635l-134 77v31q93 54 259 109l16 -17q-12 -250 -12 -637q68 58 160 96t173 38q72 0 136.5 -26.5t118.5 -79.5t86 -145t32 -212q0 -81 -16.5 -153.5t-54.5 -139.5t-93.5 -115.5t-140 -77t-188.5 -28.5q-53 0 -115.5 10t-97.5 26v-391l215 -63v-37 q-110 8 -291 8q-87 0 -227 -8v35zM326 150q43 -33 108 -54.5t139 -21.5q316 0 316 370q0 90 -18.5 161.5t-48.5 115.5t-69.5 73t-78.5 40.5t-80 11.5q-78 0 -149.5 -19.5t-118.5 -48.5v-628z" />
<glyph unicode="&#xff;" horiz-adv-x="1056" d="M10 905v39q117 -8 219 -8q133 0 234 8v-39l-178 -61q177 -441 268 -690l264 690l-176 61v39q104 -8 223 -8q66 0 183 8v-39l-127 -61l-316 -756q-97 -225 -205 -371q-92 -129 -227 -233l-74 96q125 89 209 182q122 133 178 254l-348 828zM305 1237q0 39 24 65.5t66 26.5 t66 -26.5t24 -65.5t-25 -66.5t-67 -27.5q-39 0 -63.5 27.5t-24.5 66.5zM600 1237q0 39 24 65.5t68 26.5q42 0 65 -26.5t23 -65.5t-24 -66.5t-66 -27.5q-40 0 -65 27.5t-25 66.5z" />
<glyph unicode="&#x152;" horiz-adv-x="1980" d="M102 653q0 152 40.5 275t107 203t156.5 134.5t185 77.5t197 23q99 0 324 -20h696q0 -144 -20 -295h-45l-55 215q-213 8 -471 8v-549q226 3 327 12l72 174h43q-6 -83 -6 -217q0 -101 6 -209h-41l-74 164q-114 8 -327 8v-577q114 -8 225 -8q160 0 315 20l88 230h47 q-3 -172 -20 -322h-758q-156 -20 -330 -20q-109 0 -205 21t-185 71t-152.5 125.5t-101.5 192t-38 263.5zM264 680q0 -134 31.5 -242t83.5 -178t123 -116.5t146 -66.5t157 -20q150 0 268 41v1147q-46 20 -132 32.5t-155 12.5q-76 0 -146 -17t-140 -60.5t-121 -110.5 t-83 -175.5t-32 -246.5z" />
<glyph unicode="&#x153;" horiz-adv-x="1728" d="M86 455q0 102 27 187.5t72.5 144.5t106 100.5t126.5 60.5t135 19q129 0 224 -58t145 -166q58 110 158 167t218 57q161 0 255 -96.5t94 -258.5q0 -22 -7 -45q-58 -51 -223 -51h-438q1 -97 24 -173t58.5 -122t84.5 -75.5t96.5 -40.5t98.5 -11q76 0 140 19.5t155 66.5 l29 -43q-164 -164 -383 -164q-124 0 -219.5 59.5t-147.5 162.5q-54 -106 -152 -164t-222 -58q-92 0 -172 29t-144.5 85.5t-101.5 151t-37 216.5zM240 471q0 -218 80 -322t225 -104q141 0 218 104t77 312q0 432 -295 432q-65 0 -117.5 -22t-96 -69t-67.5 -131t-24 -200z M983 573l528 31q-2 138 -58 209.5t-177 71.5q-71 0 -128.5 -28.5t-91.5 -75t-52.5 -100t-20.5 -108.5z" />
<glyph unicode="&#x178;" horiz-adv-x="1349" d="M10 1313v35q132 -9 254 -9q162 3 258 11v-35l-184 -70q348 -551 373 -594q15 26 59.5 98.5t121 200t175.5 295.5l-182 68v35q91 -7 223 -7q101 0 233 9v-35l-151 -70l-442 -670v-475l176 -65v-37q-110 8 -254 8q-100 0 -244 -8v37l176 65v475l-440 670zM461 1552 q0 39 24 66t66 27t66 -27t24 -66q0 -40 -24.5 -67t-67.5 -27q-39 0 -63.5 27t-24.5 67zM776 1552q0 39 24 66t68 27q41 0 64.5 -27t23.5 -66q0 -40 -24.5 -67t-65.5 -27t-65.5 26.5t-24.5 67.5z" />
<glyph unicode="&#x2c6;" horiz-adv-x="565" d="M25 1075l202 330q25 14 62 14q25 0 53 -14l199 -334l-41 -24l-221 237l-216 -237z" />
<glyph unicode="&#x2dc;" horiz-adv-x="565" d="M8 1120q60 199 160 199q42 0 106 -27l52 -22q60 -27 84 -27q30 0 54 22.5t52 77.5l43 -14q-38 -113 -70.5 -158t-74.5 -45q-47 0 -125 35l-45 21q-55 22 -84 22q-32 0 -56 -22t-55 -76z" />
<glyph unicode="&#x2000;" horiz-adv-x="898" />
<glyph unicode="&#x2001;" horiz-adv-x="1796" />
<glyph unicode="&#x2002;" horiz-adv-x="898" />
<glyph unicode="&#x2003;" horiz-adv-x="1796" />
<glyph unicode="&#x2004;" horiz-adv-x="598" />
<glyph unicode="&#x2005;" horiz-adv-x="449" />
<glyph unicode="&#x2006;" horiz-adv-x="299" />
<glyph unicode="&#x2007;" horiz-adv-x="299" />
<glyph unicode="&#x2008;" horiz-adv-x="224" />
<glyph unicode="&#x2009;" horiz-adv-x="359" />
<glyph unicode="&#x200a;" horiz-adv-x="99" />
<glyph unicode="&#x2010;" horiz-adv-x="591" d="M61 446v127h471v-127h-471z" />
<glyph unicode="&#x2011;" horiz-adv-x="591" d="M61 446v127h471v-127h-471z" />
<glyph unicode="&#x2012;" horiz-adv-x="591" d="M61 446v127h471v-127h-471z" />
<glyph unicode="&#x2013;" horiz-adv-x="1130" d="M98 446v109h932v-109h-932z" />
<glyph unicode="&#x2014;" horiz-adv-x="1587" d="M98 446v109h1389v-109h-1389z" />
<glyph unicode="&#x2018;" horiz-adv-x="432" d="M104 1120q0 100 67.5 194.5t184.5 166.5l23 -31q-150 -146 -150 -260q0 -43 28 -83.5t71 -66.5q-11 -33 -54.5 -70t-76.5 -40q-40 21 -66.5 72.5t-26.5 117.5z" />
<glyph unicode="&#x2019;" horiz-adv-x="432" d="M53 936q152 141 152 260q0 43 -28 83.5t-71 66.5q16 37 56.5 71t77.5 37q38 -20 63 -71t25 -119q0 -99 -66 -194.5t-182 -166.5z" />
<glyph unicode="&#x201a;" horiz-adv-x="432" d="M53 -299q152 141 152 260q0 43 -28 83.5t-71 66.5q16 37 56.5 71t77.5 37q38 -20 63 -71t25 -119q0 -99 -66 -194.5t-182 -164.5z" />
<glyph unicode="&#x201c;" horiz-adv-x="739" d="M104 1120q0 100 67.5 194.5t184.5 166.5l23 -31q-150 -146 -150 -260q0 -43 28 -83.5t71 -66.5q-11 -33 -54.5 -70t-76.5 -40q-40 21 -66.5 72.5t-26.5 117.5zM410 1120q0 101 65.5 195.5t183.5 165.5l25 -31q-149 -142 -149 -260q0 -43 27 -84t71 -66 q-13 -34 -55.5 -70.5t-77.5 -39.5q-39 21 -64.5 72.5t-25.5 117.5z" />
<glyph unicode="&#x201d;" horiz-adv-x="739" d="M53 936q152 141 152 260q0 43 -28 83.5t-71 66.5q13 33 56 69t78 39q38 -20 63 -71t25 -119q0 -99 -66 -194.5t-182 -166.5zM360 936q148 148 148 260q0 43 -27 84t-71 66q13 32 55 68.5t76 39.5q40 -20 67 -71t27 -119q0 -99 -67.5 -194.5t-184.5 -166.5z" />
<glyph unicode="&#x201e;" horiz-adv-x="739" d="M53 -299q152 141 152 260q0 43 -28 83.5t-71 66.5q16 37 56.5 71t77.5 37q38 -20 63 -71t25 -119q0 -99 -66 -194.5t-182 -164.5zM360 -299q148 148 148 260q0 43 -27 84t-71 66q15 36 56 70.5t75 37.5q40 -20 67 -71t27 -119q0 -99 -67.5 -194t-184.5 -165z" />
<glyph unicode="&#x2022;" horiz-adv-x="768" d="M121 516q0 112 76.5 190t183.5 78q112 0 188 -78.5t76 -189.5q0 -110 -76 -186t-186 -76q-108 0 -185 76t-77 186z" />
<glyph unicode="&#x2026;" horiz-adv-x="1744" d="M174 94q0 54 33.5 88.5t83.5 34.5q54 0 85.5 -32.5t31.5 -86.5q0 -52 -31.5 -86.5t-87.5 -34.5q-52 0 -83.5 33.5t-31.5 83.5zM756 94q0 54 33 88.5t83 34.5q55 0 86 -32t31 -87q0 -52 -30.5 -86.5t-86.5 -34.5q-53 0 -84.5 33t-31.5 84zM1339 94q0 54 32.5 88.5 t82.5 34.5q55 0 86 -32t31 -87q0 -52 -30.5 -86.5t-86.5 -34.5q-53 0 -84 33t-31 84z" />
<glyph unicode="&#x202f;" horiz-adv-x="359" />
<glyph unicode="&#x2039;" horiz-adv-x="532" d="M51 489v31l389 344l29 -24l-256 -332l264 -348l-31 -29z" />
<glyph unicode="&#x203a;" horiz-adv-x="532" d="M55 836l31 28l397 -358v-31l-391 -344l-29 25l256 331z" />
<glyph unicode="&#x205f;" horiz-adv-x="449" />
<glyph unicode="&#x20ac;" horiz-adv-x="1275" d="M152 516v64h122v14q0 62 7 137h-129v64h137q43 258 193 389t368 131q90 0 187 -23t132 -53q0 -132 -16 -268h-43l-47 194q-91 62 -260 62q-84 0 -153.5 -35.5t-115 -97t-74.5 -137t-40 -162.5h551v-64h-557q-2 -18 -2 -51q0 -69 2 -100h557v-64h-549q15 -119 55 -205.5 t96 -134t116.5 -69t129.5 -21.5q85 0 180 31.5t177 91.5l32 -45q-82 -91 -197 -143t-237 -52q-206 0 -342 146.5t-156 400.5h-124z" />
<glyph unicode="&#x2122;" horiz-adv-x="1959" d="M100 1346h697q0 -109 -11 -193h-28l-41 141q-78 4 -215 4v-634l104 -39v-23q-66 4 -164 4q-77 0 -159 -4v23l102 39v634q-61 0 -205 -4l-39 -141h-30q-11 81 -11 193zM877 602v23l102 39q15 386 20 581q1 33 2 37l-106 41v25q113 -5 129 -5q65 0 96 5q205 -464 236 -549 q45 119 250 549q93 -5 106 -5q26 0 109 5v-27l-103 -39v-3q1 -16 1.5 -46t4.5 -181.5t9 -387.5l102 -39v-23q-132 4 -162 4q-46 0 -164 -4v23l105 39q-6 522 -6 571q-36 -88 -269 -584h-43l-249 582q0 -10 -0.5 -50t-1 -176t-1.5 -343l109 -39v-23q-11 0 -57 2t-80 2 q-33 0 -78 -2t-61 -2z" />
<glyph unicode="&#xe000;" horiz-adv-x="945" d="M0 0v945h945v-945h-945z" />
</font>
</defs>
</svg>
